<?xml version="1.0" standalone="no"?>
<!DOCTYPE svg PUBLIC "-//W3C//DTD SVG 1.1//EN" "http://www.w3.org/Graphics/SVG/1.1/DTD/svg11.dtd" >
<svg xmlns="http://www.w3.org/2000/svg" xmlns:xlink="http://www.w3.org/1999/xlink" version="1.1">
<metadata></metadata>
<defs>
<font id="faustinamedium" horiz-adv-x="1085" >
<font-face units-per-em="2048" ascent="1638" descent="-410" />
<missing-glyph horiz-adv-x="393" />
<glyph unicode="&#xfb01;" horiz-adv-x="1191" d="M51 0v92l148 29v766h-136v106l134 29q10 129 80.5 223t175 143.5t213.5 49.5q123 0 180 -28t57 -97q0 -43 -28.5 -76t-75.5 -33q-31 0 -86 19q-45 16 -89 25t-112 9q-45 0 -75.5 -7t-39.5 -17v-217h535l63 -25v-870l156 -29v-92h-512v92l158 29v719l-168 47h-232v-760 l178 -35v-92h-524z" />
<glyph unicode="&#xfb02;" horiz-adv-x="1226" d="M51 0v92l148 29v766h-136v106l134 29q6 203 129 309.5t364 106.5q98 0 173 -16.5t118 -35t43 -20.5v-1245l158 -29v-92h-512v92l155 29v1120q-37 14 -106.5 25.5t-136.5 11.5q-53 0 -106.5 -7t-78.5 -22v-233h262v-70l-26 -59h-236v-762l203 -33v-92h-549z" />
<glyph horiz-adv-x="0" />
<glyph unicode="&#xd;" horiz-adv-x="393" />
<glyph horiz-adv-x="0" />
<glyph horiz-adv-x="0" />
<glyph unicode=" "  horiz-adv-x="393" />
<glyph unicode="&#x09;" horiz-adv-x="393" />
<glyph unicode="&#xa0;" horiz-adv-x="393" />
<glyph unicode="!" horiz-adv-x="423" d="M66 1366q2 2 14 8t38.5 11.5t63.5 5.5q72 0 94.5 -28t22.5 -81q0 -37 -12 -258l-37 -696h-115zM70 96q0 57 36.5 98.5t94.5 41.5q53 0 87 -35t34 -92t-36 -99.5t-98 -42.5q-53 0 -85.5 36t-32.5 93z" />
<glyph unicode="&#x22;" horiz-adv-x="669" d="M104 1444q58 29 111 29q84 0 84 -78q-6 -57 -10 -90l-47 -295h-92zM387 1444q58 29 111 29q84 0 84 -78q0 -23 -11 -90l-47 -295h-92z" />
<glyph unicode="#" d="M-4 248v141h240l47 250h-240v141h268l54 283h145l-55 -283h250l53 283h145l-55 -283h199v-141h-228l-47 -250h229v-141h-256l-59 -311h-145l61 311h-250l-59 -311h-146l62 311h-213zM379 389h250l47 250h-250z" />
<glyph unicode="$" horiz-adv-x="972" d="M102 94v314h115l33 -207q43 -37 105.5 -59.5t138.5 -22.5q221 0 221 203q0 92 -56.5 144t-203.5 116q-113 49 -180.5 88t-119 113.5t-51.5 187.5q0 145 89.5 242.5t244.5 119.5l11 221h124l9 -217q76 -6 158.5 -20t123.5 -29v-330h-112l-41 199q-80 45 -195 45 q-106 0 -156.5 -43t-50.5 -129q0 -68 30 -110.5t78 -69.5t154 -74q121 -53 189.5 -98t111.5 -114.5t43 -178.5q0 -164 -95 -266.5t-251 -126.5l-8 -225h-123l-8 221q-102 8 -194.5 38.5t-133.5 67.5z" />
<glyph unicode="%" horiz-adv-x="1433" d="M33 1028q0 152 78.5 240t236.5 88q160 0 226.5 -84t66.5 -240q0 -150 -74.5 -235.5t-238.5 -85.5q-162 0 -228.5 84t-66.5 233zM166 -4l960 1386l115 -77l-956 -1389zM188 1032q0 -111 31 -160t119 -49t117.5 48.5t29.5 160.5q0 123 -32.5 166t-116.5 43q-80 0 -114 -49 t-34 -160zM788 299q0 150 79 238t237 88t225.5 -83t67.5 -239q0 -150 -75 -236.5t-239 -86.5q-161 0 -228 85t-67 234zM944 303q0 -111 31 -160t119 -49t117.5 48t29.5 161q0 121 -32.5 165t-116.5 44q-80 0 -114 -49t-34 -160z" />
<glyph unicode="&#x26;" horiz-adv-x="1251" d="M84 346q0 135 78 224t172 141q-80 86 -118 158.5t-38 154.5q0 145 101.5 238.5t285.5 93.5q86 0 172 -18.5t131 -39.5v-319h-112l-41 215q-2 0 -40 14.5t-128 14.5q-104 0 -145.5 -44t-41.5 -128q0 -63 27 -106.5t119 -137.5l446 -463q27 70 27 145q0 100 -23 162 l-176 35v98h301q16 -43 27.5 -118.5t11.5 -178.5q0 -127 -67 -247l100 -105l164 -35v-100h-203q-84 0 -145 61l-37 37q-150 -123 -365 -123q-213 0 -348 84t-135 287zM287 375q0 -133 69.5 -196.5t239.5 -63.5q147 0 246 75l-430 441q-125 -96 -125 -256z" />
<glyph unicode="'" horiz-adv-x="423" d="M113 1444q61 29 112 29q84 0 84 -78l-12 -90l-47 -295h-92z" />
<glyph unicode="(" horiz-adv-x="528" d="M80 571q0 780 414 861l38 -95q-109 -33 -164 -124t-73.5 -240.5t-18.5 -401.5q0 -270 20.5 -425.5t76 -242.5t162.5 -118l-39 -94q-238 47 -327 290.5t-89 589.5z" />
<glyph unicode=")" horiz-adv-x="528" d="M-6 -215q106 31 161.5 118t76 242.5t20.5 425.5q0 252 -18.5 401.5t-74 241t-163.5 123.5l39 95q236 -45 325 -282t89 -575q0 -348 -89.5 -592.5t-326.5 -291.5z" />
<glyph unicode="*" horiz-adv-x="786" d="M23 1081q0 35 26 101l293 -47l-68 147q-2 6 -19 42t-17 67q0 70 106 69h43l45 -293l123 115l27.5 27.5t39 30t42.5 10.5q31 0 50 -27t42 -96l-264 -140l141 -73q12 -8 43 -23.5t48 -36t17 -47.5q0 -25 -20.5 -49t-69.5 -57l-215 207l-28 -158q-12 -66 -27.5 -102.5 t-58.5 -36.5q-37 0 -109 57l129 268l-160 -18q-61 -6 -76 -6q-33 0 -58 15t-25 54zM358 1047l72 -21l41 61l-45 62l-68 -27v-75z" />
<glyph unicode="+" d="M133 479v142h330v340h155v-340h334v-142h-334v-338h-155v338h-330z" />
<glyph unicode="," horiz-adv-x="380" d="M47 -240q35 70 55.5 136.5t20.5 109.5q0 41 -19.5 77t-46.5 58q47 102 142 103q57 0 92 -39t35 -96q0 -92 -73 -203t-134 -176z" />
<glyph unicode="-" horiz-adv-x="641" d="M80 477v139l450 35v-174h-450z" />
<glyph unicode="." horiz-adv-x="391" d="M66 115q0 59 38.5 102t98.5 43q57 0 91 -36t34 -97t-37 -104t-101 -43q-55 0 -89.5 37.5t-34.5 97.5z" />
<glyph unicode="/" horiz-adv-x="716" d="M-63 -281l743 1704l137 -61l-741 -1704z" />
<glyph unicode="0" horiz-adv-x="1222" d="M98 668q0 326 131 508t406 182q270 0 381.5 -177t111.5 -513q0 -328 -128 -509.5t-402 -181.5q-272 0 -386 178.5t-114 512.5zM324 668q0 -285 62.5 -420t227.5 -135q166 0 228.5 135t62.5 420t-62.5 419t-228.5 134t-228 -134.5t-62 -418.5z" />
<glyph unicode="1" horiz-adv-x="823" d="M90 1171v115l346 62h111v-1213l237 -24v-111h-675v111l235 24v1036h-254z" />
<glyph unicode="2" horiz-adv-x="1011" d="M59 0v121l400 418q129 135 184 232t55 206q0 123 -53 176t-196 53q-127 0 -211 -37l-37 -200h-113v311q59 29 157.5 52.5t211.5 23.5q240 0 350.5 -87t110.5 -274q0 -92 -35 -173t-109 -171t-211 -225l-250 -246v-12h500l45 182h113v-350h-912z" />
<glyph unicode="3" horiz-adv-x="929" d="M41 72l16 284h123l21 -172q106 -63 207 -63q145 0 212.5 60.5t67.5 197.5q0 133 -86 189.5t-237 56.5h-95l-32 63v78h100q123 0 210 61.5t87 171.5q0 109 -53.5 158t-184.5 49q-66 0 -105.5 -9t-76.5 -21l-18 -177h-117l-19 291q166 66 365 66q213 0 309 -77t96 -226 q0 -117 -65.5 -197t-159.5 -119l-6 -6q129 -29 218 -107.5t89 -230.5q0 -207 -138 -312.5t-357 -105.5q-113 0 -213.5 30t-157.5 67z" />
<glyph unicode="4" horiz-adv-x="1009" d="M-8 475l663 920l133 -52v-833h181v-150h-181v-229l170 -33v-98h-538v98l170 33v229h-539zM195 524l4 -14h391v537l2 32l-4 6l-15 -32z" />
<glyph unicode="5" horiz-adv-x="921" d="M41 63l16 295h119l21 -194q4 -2 54 -26.5t167 -24.5q137 0 199.5 75.5t62.5 219.5q0 145 -87 215.5t-292 70.5h-209v633h731v-178h-596v-311h125q276 0 410.5 -93.5t134.5 -300.5q0 -219 -130 -344t-355 -125q-228 0 -371 88z" />
<glyph unicode="6" horiz-adv-x="1069" d="M92 514q0 256 97.5 442.5t282.5 288t443 107.5v-92q-274 -29 -424.5 -167.5t-162.5 -369.5q68 47 147.5 72.5t163.5 25.5q162 0 260 -104.5t98 -274.5q0 -139 -58 -244.5t-164.5 -164t-246.5 -58.5q-219 0 -327.5 134.5t-108.5 404.5zM326 557q0 -166 22.5 -262 t71.5 -138t137 -42q115 0 169 71.5t54 223.5q0 123 -60.5 185t-174.5 62q-111 0 -219 -32v-68z" />
<glyph unicode="7" horiz-adv-x="901" d="M43 1327h868v-178l-563 -1149h-176v94l561 1016v39h-530l-19 -160h-123z" />
<glyph unicode="8" horiz-adv-x="1007" d="M86 291q0 111 67.5 208t174.5 160q-213 121 -213 328q0 109 53 193t147.5 131t208.5 47q178 0 276.5 -85t98.5 -226q0 -106 -54 -191.5t-145 -138.5q121 -66 183.5 -145.5t62.5 -202.5q0 -102 -49 -191.5t-150.5 -145t-248.5 -55.5q-201 0 -306.5 82t-105.5 232zM285 340 q0 -115 55 -173t178 -58q230 0 230 223q0 88 -63.5 145.5t-211.5 114.5l-51 22q-137 -119 -137 -274zM309 1038q0 -82 46 -133t161 -102q27 -12 48.5 -22.5t37.5 -16.5q117 98 117 250q0 104 -50.5 150t-160.5 46q-199 0 -199 -172z" />
<glyph unicode="9" horiz-adv-x="1015" d="M49 903q0 145 59.5 247.5t158 154t218.5 51.5q240 0 355.5 -145.5t115.5 -481.5q0 -381 -165.5 -563t-466.5 -182q-78 0 -120 6t-48 6v92q215 0 336.5 49t176 160t60.5 305q-41 -29 -113.5 -59.5t-185.5 -30.5q-172 0 -276.5 104.5t-104.5 286.5zM268 926 q0 -137 72 -195.5t182 -58.5q96 0 150.5 20.5t56.5 20.5q2 174 -12.5 277.5t-67.5 165t-166 61.5q-121 0 -168 -70t-47 -221z" />
<glyph unicode=":" horiz-adv-x="434" d="M88 115q0 59 39 102t98 43q55 0 90 -36t35 -97t-38 -104t-99 -43q-57 0 -91 37.5t-34 97.5zM88 788q0 59 39 102.5t98 43.5q55 0 90 -36t35 -95q0 -61 -38 -105.5t-99 -44.5q-57 0 -91 38t-34 97z" />
<glyph unicode=";" horiz-adv-x="442" d="M82 -240q35 68 55.5 135.5t20.5 110.5q0 41 -18.5 77t-45.5 58q47 102 139 103q59 0 93 -38t34 -97q0 -94 -73.5 -207t-132.5 -172zM94 788q0 59 39 102.5t98 43.5q57 0 91 -36t34 -95q0 -61 -36.5 -105.5t-100.5 -44.5q-55 0 -90 38t-35 97z" />
<glyph unicode="&#x3c;" d="M66 442v127l890 459l74 -149l-756 -367l754 -365l-70 -147z" />
<glyph unicode="=" d="M135 311v144h815v-144h-815zM135 641v145h815v-145h-815z" />
<glyph unicode="&#x3e;" d="M63 879l74 149l891 -459v-127l-893 -442l-69 147l753 365z" />
<glyph unicode="?" horiz-adv-x="739" d="M63 1247q0 59 35 86t144 27q129 0 230 -53.5t158.5 -150.5t57.5 -228q0 -123 -66.5 -204t-172.5 -116l-109 -35l-43 -239h-127l-8 348l188 68q88 31 125 84t37 155q0 76 -20.5 112t-66.5 48t-138 12h-197q-2 4 -8 15.5t-12.5 31t-6.5 39.5zM104 96q0 57 37 98.5t95 41.5 q53 0 86.5 -35t33.5 -92t-35.5 -99.5t-97.5 -42.5q-53 0 -86 36t-33 93z" />
<glyph unicode="@" horiz-adv-x="1560" d="M51 516q0 201 103.5 379t286 285.5t409.5 107.5q205 0 358.5 -87t234.5 -234.5t81 -323.5q0 -250 -110.5 -391t-295.5 -141q-78 0 -139 35.5t-84 105.5q-8 -6 -51 -40t-100.5 -59.5t-110.5 -25.5q-96 0 -149.5 72.5t-53.5 208.5q0 102 40 218.5t124 197.5t207 81 q41 0 82 -9t68.5 -19.5t35.5 -14.5l62 66h86l-91 -541q-6 -37 -6 -57q0 -43 24.5 -66.5t72.5 -23.5q94 0 155.5 89t61.5 273q0 283 -147.5 417t-375.5 134q-150 0 -285.5 -61.5t-225 -201.5t-89.5 -362q0 -303 155 -461.5t425 -158.5q109 0 212 27.5t150 50.5l35 -70 q0 -6 -59.5 -42t-156.5 -66.5t-218 -30.5q-221 0 -384 93t-250 261t-87 385zM598 455q0 -98 21.5 -139.5t76.5 -41.5q39 0 79 16.5t66.5 34t32.5 23.5l64 389q-4 2 -23.5 11.5t-55.5 17.5t-85 8q-33 0 -61.5 -7t-38.5 -17q-27 -31 -51.5 -118t-24.5 -177z" />
<glyph unicode="A" horiz-adv-x="1273" d="M-18 0v96l131 31l440 1212h143l463 -1212l135 -31v-96h-532v96l151 31l-6 41l-78 209h-469l-73 -211l-4 -39l159 -31v-96h-460zM406 508h380l-182 500l-8 30l-6 6l-10 -40z" />
<glyph unicode="B" horiz-adv-x="1251" d="M106 0v96l168 37v1063l-168 35v96h545q217 0 335 -85t118 -241q0 -104 -54.5 -176.5t-168.5 -117.5q129 -31 207.5 -120t78.5 -206q0 -180 -122.5 -280.5t-342.5 -100.5h-596zM485 135q51 -10 154 -10q295 0 295 250q0 125 -79 181t-251 56h-119v-477zM485 737h95 q145 0 224 66.5t79 189.5q0 205 -260 205q-72 0 -138 -10v-451z" />
<glyph unicode="C" horiz-adv-x="1249" d="M86 647q0 193 80 355.5t226.5 258t336.5 95.5q127 0 232.5 -16.5t177.5 -43.5v-335h-117l-43 223q-123 35 -258 35q-143 0 -228 -57.5t-123 -180.5t-38 -328q0 -270 101.5 -409.5t293.5 -139.5q152 0 205 33t55 35l43 219h117v-328q-92 -39 -191.5 -64.5t-261.5 -25.5 q-305 0 -456.5 172t-151.5 502z" />
<glyph unicode="D" horiz-adv-x="1445" d="M100 0v96l168 37v1061l-168 37v96h617q309 0 476 -163t167 -472q0 -334 -181.5 -513t-516.5 -179h-562zM479 135q61 -14 156 -14q180 0 283.5 55t149.5 180t46 338q0 270 -115.5 387t-349.5 117q-92 0 -170 -10v-1053z" />
<glyph unicode="E" horiz-adv-x="1177" d="M100 0v96l168 37v1063l-168 35v96h963v-350h-113l-45 225h-258l-168 -14v-451h289l35 127h92v-381h-92l-35 133h-289v-473q80 -14 183 -14h260l49 227h110v-356h-981z" />
<glyph unicode="F" horiz-adv-x="1071" d="M100 0v96l168 37v1063l-168 35v96h963v-350h-115l-45 225h-256l-168 -14v-490h314l32 129h93v-383h-93l-32 134h-314v-441l213 -33v-104h-592z" />
<glyph unicode="G" horiz-adv-x="1323" d="M86 643q0 201 81 363.5t231.5 256t353.5 93.5q137 0 243.5 -19.5t159.5 -42.5v-336h-115l-55 226q-104 35 -252 35q-217 0 -309 -135.5t-92 -417.5q0 -291 92 -426.5t305 -135.5q80 0 131 13.5t107 40.5v374l-154 37v97h451v-107l-90 -22v-537h-89l-61 55h-25 q-127 -82 -321 -82q-592 0 -592 670z" />
<glyph unicode="H" horiz-adv-x="1548" d="M100 0v98l168 33v1065l-168 33v98h547v-98l-168 -33v-451h590v451l-168 33v98h547v-98l-168 -33v-1065l168 -33v-98h-547v98l168 33v487h-590v-487l168 -33v-98h-547z" />
<glyph unicode="I" horiz-adv-x="757" d="M106 0v98l166 33v1065l-166 33v98h545v-98l-166 -33v-1065l166 -33v-98h-545z" />
<glyph unicode="J" horiz-adv-x="829" d="M14 29v315h113l57 -231q6 -4 33 -12.5t59 -8.5q119 0 119 123v979l-186 35v98h551v-98l-154 -33v-963q0 -133 -77.5 -198.5t-245.5 -65.5q-94 0 -170 21.5t-99 38.5z" />
<glyph unicode="K" horiz-adv-x="1249" d="M100 0v98l168 33v1065l-168 33v98h547v-98l-168 -33v-463h53l367 447v26l-113 25v96h437v-98l-125 -29l-389 -469l419 -598l142 -35v-98h-228q-49 0 -75.5 14.5t-53.5 55.5l-378 557h-56v-496l168 -33v-98h-547z" />
<glyph unicode="L" horiz-adv-x="1071" d="M100 0v96l168 37v1063l-168 35v96h559v-102l-180 -33v-1051l172 -16h234l49 223h110v-348h-944z" />
<glyph unicode="M" horiz-adv-x="1808" d="M98 0v94l154 35v1073l-131 25v100h442l309 -944l25 -100l25 100l307 944h465v-100l-160 -29v-1067l168 -33v-98h-547v98l168 33v983h-25l-14 -49l-352 -1065h-144l-368 1114h-21l2 -53v-932l154 -35v-94h-457z" />
<glyph unicode="N" horiz-adv-x="1490" d="M100 0v94l150 35v1069l-133 29v100h348l612 -971l23 -37h14v879l-147 35v94h444v-94l-149 -35v-1198h-207l-623 979l-20 35h-15v-885l150 -35v-94h-447z" />
<glyph unicode="O" horiz-adv-x="1431" d="M86 641q0 203 79 365.5t229.5 256t355.5 93.5q283 0 439.5 -177.5t156.5 -488.5q0 -209 -71 -371.5t-215.5 -256t-357.5 -93.5q-299 0 -457.5 176.5t-158.5 495.5zM332 666q0 -301 101.5 -432.5t309.5 -131.5q187 0 272 134.5t85 410.5q0 221 -45 347t-128 175.5 t-208 49.5q-127 0 -209 -41t-130 -161t-48 -351z" />
<glyph unicode="P" horiz-adv-x="1167" d="M100 0v96l168 37v1063l-168 35v96h531q246 0 376 -81t130 -269q0 -215 -133.5 -330t-354.5 -115q-23 0 -71 5l-11 86q174 4 259 75.5t85 235.5q0 264 -284 264q-47 0 -91 -3t-57 -5v-1053l209 -37v-100h-588z" />
<glyph unicode="Q" horiz-adv-x="1441" d="M86 649q0 193 83 354.5t233.5 257t347.5 95.5q283 0 439.5 -175t156.5 -483q0 -227 -103.5 -421.5t-327.5 -266.5l304 -180h215v-82q-8 -6 -42 -22.5t-82 -33t-93 -16.5q-88 0 -162 48l-277 188q-33 22 -70.5 39.5t-99.5 28.5q-252 18 -387 194t-135 475zM332 672 q0 -291 106.5 -429.5t313.5 -138.5q180 0 264 138.5t84 421.5q0 215 -46 336.5t-129 170t-206 48.5q-127 0 -209 -40t-130 -160t-48 -347z" />
<glyph unicode="R" horiz-adv-x="1261" d="M100 0v96l168 37v1063l-168 35v96h580q205 0 321.5 -82t116.5 -260q0 -160 -76.5 -247t-205.5 -142l276 -463l143 -37v-96h-241q-80 0 -115 63l-270 490h-150v-420l168 -37v-96h-547zM479 680h109q137 0 220 75.5t83 205.5q0 137 -71.5 187t-192.5 50q-70 0 -148 -8v-510 z" />
<glyph unicode="S" horiz-adv-x="1067" d="M106 84v313h121l35 -207q43 -35 112.5 -58t129.5 -23q145 0 208.5 51t63.5 166q0 66 -30.5 108.5t-84 72.5t-155.5 71q-141 53 -213 88.5t-128 110.5t-56 198q0 172 121.5 276.5t328.5 104.5q98 0 206.5 -16.5t154.5 -34.5v-330h-113l-39 201q-4 2 -58.5 22.5 t-152.5 20.5q-137 0 -190.5 -48.5t-53.5 -138.5q0 -70 40 -115t92.5 -68.5t170.5 -68.5q115 -45 190 -90t123 -119.5t48 -187.5q0 -143 -67.5 -234.5t-172 -132.5t-223.5 -41q-129 0 -243.5 34t-164.5 75z" />
<glyph unicode="T" horiz-adv-x="1122" d="M27 977v350h1073v-350h-113l-45 221h-272v-1067l166 -33v-98h-545v98l166 33v1067h-273l-47 -221h-110z" />
<glyph unicode="U" horiz-adv-x="1470" d="M66 1229v98h542v-98l-164 -33v-627q0 -184 30 -279t101.5 -133t210.5 -38q119 0 186.5 47t95.5 144.5t28 258.5v625l-166 33v100h487v-100l-166 -33v-625q0 -211 -45 -340t-158.5 -194.5t-316.5 -65.5q-197 0 -304.5 63.5t-150.5 192.5t-43 344v627z" />
<glyph unicode="V" horiz-adv-x="1245" d="M-20 1231v96h534v-96l-156 -31v-26l291 -846l21 -64l22 53l211 611l82 272l-166 31v96h453v-96l-125 -31l-438 -1214h-138l-462 1214z" />
<glyph unicode="W" horiz-adv-x="1974" d="M-8 1231v96h528v-96l-158 -31l5 -35l235 -839l16 -62h7l18 62l270 745l-47 129l-147 31v96h549v-96l-160 -31l4 -33l311 -841l17 -60h10l14 60l230 839l2 35l-168 31v96h461v-96l-125 -31l-363 -1214h-164l-325 829l-13 39h-12l-12 -43l-305 -825h-164l-385 1214z" />
<glyph unicode="X" horiz-adv-x="1230" d="M6 0v98l141 31l367 526l-364 533l-134 41v98h537v-98l-127 -29v-37l233 -342l252 350v33l-139 27v96h467v-94l-139 -33l-363 -495l385 -576l146 -31v-98h-547v98l139 31v25l-266 385l-268 -383v-33l129 -27v-96h-449z" />
<glyph unicode="Y" horiz-adv-x="1214" d="M-8 1235v92h516v-92l-148 -33v-35l283 -534h27l278 538v31l-157 33v92h454v-92l-129 -35l-381 -696v-373l166 -33v-98h-545v98l166 33v354l-401 717z" />
<glyph unicode="Z" horiz-adv-x="1120" d="M53 0v131l721 1030v35h-534l-54 -211h-112v342h977v-141l-736 -1030v-25h584l53 213h115v-344h-1014z" />
<glyph unicode="[" horiz-adv-x="518" d="M139 -309v1745h355v-103l-191 -30v-1481l191 -31v-100h-355z" />
<glyph unicode="\" horiz-adv-x="788" d="M-70 1362l136 61l745 -1704l-139 -61z" />
<glyph unicode="]" horiz-adv-x="518" d="M25 -209l190 31v1483l-190 28v103h356v-1745h-356v100z" />
<glyph unicode="^" d="M90 537l391 792h127l389 -792h-163l-289 618l-293 -618h-162z" />
<glyph unicode="_" horiz-adv-x="927" d="M6 0h916v-143h-916v143z" />
<glyph unicode="`" horiz-adv-x="419" d="M0 1335q12 66 45 104t66 38q23 0 43 -16.5t51 -51.5l215 -244l-62 -69z" />
<glyph unicode="a" horiz-adv-x="1007" d="M76 240q0 129 92 205.5t266 101.5l195 31v147q0 86 -45 127t-142 41q-45 0 -76.5 -6t-39.5 -8l-31 -189q-4 -2 -24.5 -9t-53.5 -7q-47 0 -77.5 26.5t-30.5 75.5q0 80 73.5 138.5t175 89t174.5 30.5q143 0 219 -65.5t76 -182.5v-639l148 -29v-85q-8 -4 -39 -14.5 t-78 -19.5t-96 -9q-59 0 -84 25.5t-35 70.5h-10q-29 -33 -102.5 -68.5t-161.5 -35.5q-148 0 -220.5 73.5t-72.5 184.5zM287 272q0 -63 46 -105t132 -42q55 0 99 13.5t65 23.5v305q-186 -14 -264 -60.5t-78 -134.5z" />
<glyph unicode="b" horiz-adv-x="1077" d="M-25 1288v90l306 54l61 -29v-432l-4 -29v-12q43 37 116.5 70.5t174.5 33.5q168 0 270 -112.5t102 -348.5q0 -190 -60 -323t-159.5 -200.5t-218.5 -67.5q-143 0 -237 88h-19l-63 -74h-101v1264zM342 147q89 -34 179 -34h5q127 0 192.5 92t65.5 307q0 199 -56 284t-191 85 q-90 0 -195 -31v-703z" />
<glyph unicode="c" horiz-adv-x="909" d="M49 481q0 164 58.5 290t165 194.5t245.5 68.5q150 0 239 -73.5t89 -184.5q0 -43 -27.5 -73.5t-87.5 -30.5q-29 0 -46 6t-21 8l-35 195q0 2 -36 11t-81 9q-139 0 -194.5 -89t-55.5 -296t74 -294t242 -87q57 0 107 8.5t80 17.5t38 13l28 -70q0 -4 -45 -36.5t-119.5 -60 t-168.5 -27.5q-211 0 -330 128t-119 373z" />
<glyph unicode="d" horiz-adv-x="1120" d="M76 449q0 201 65.5 332.5t166 192t208.5 60.5q131 0 219 -71l2 20l-4 25v252l-168 47v90l303 35l64 -29v-1247l151 -33v-90l-303 -43l-32 104l-9 2q-39 -43 -111.5 -79.5t-170.5 -36.5q-170 0 -275.5 116.5t-105.5 352.5zM291 506q0 -199 54 -285t185 -86q58 0 112 15.5 t91 33.5v680q-86 31 -182 31q-127 0 -193.5 -88t-66.5 -301z" />
<glyph unicode="e" horiz-adv-x="958" d="M49 481q0 164 59.5 290t165 194.5t240.5 68.5q182 0 269 -111.5t87 -271.5q0 -106 -21.5 -143t-76.5 -37h-510q0 -154 72 -245t233 -91q74 0 129.5 11.5t86 22.5t36.5 15l31 -67q0 -4 -48 -40t-125 -66.5t-173 -30.5q-223 0 -339 132t-116 369zM262 578l402 16q6 37 6 78 q0 119 -39 174t-144 55q-115 0 -168 -83t-57 -240z" />
<glyph unicode="f" horiz-adv-x="645" d="M33 0v92l147 29v766h-133v106l133 29q4 121 59.5 216t148.5 147.5t208 52.5q63 0 99 -28t36 -79q0 -43 -23.5 -70.5t-41.5 -35.5q4 -2 -50 14q-14 4 -59 15.5t-71.5 16.5t-45.5 5q-33 0 -61 -14v-246h262v-70l-27 -59h-235v-760l213 -33v-94h-559z" />
<glyph unicode="g" horiz-adv-x="956" d="M37 -113q0 86 63.5 144.5t153.5 107.5q-37 41 -37 103q0 39 29.5 76.5t72.5 64.5q-125 27 -187 109.5t-62 187.5q0 104 53 185t146 125t208 44q139 0 223 -61q49 35 93.5 60.5t93.5 25.5q45 0 69.5 -23.5t24.5 -68.5q0 -33 -16.5 -60.5t-34.5 -44.5l-66 21 q-12 4 -37.5 12t-52.5 8q31 -43 46.5 -95t15.5 -101q0 -98 -53.5 -175t-144.5 -119t-200 -42h-26v-105l223 -41q156 -29 230.5 -81t74.5 -160q0 -98 -67.5 -171t-181 -113t-251.5 -40q-180 0 -291.5 55.5t-111.5 171.5zM229 -84q0 -74 59.5 -106.5t196.5 -32.5q131 0 201 41 t70 108q0 45 -28 76t-103 45l-293 51q-41 -35 -72 -84t-31 -98zM272 696q0 -106 43 -151t138 -45q94 0 138 44t44 163q0 102 -40 150t-136 48q-102 0 -144.5 -48t-42.5 -161z" />
<glyph unicode="h" horiz-adv-x="1193" d="M45 0v92l166 29v1141l-166 30v94l307 46l58 -21v-453l-7 -16l3 -12q63 43 153 73.5t164 30.5q125 0 200.5 -67.5t75.5 -214.5v-631l160 -29v-92h-514v92l156 29v596q0 90 -47 128t-154 38q-80 0 -190 -25v-737l155 -29v-92h-520z" />
<glyph unicode="i" horiz-adv-x="610" d="M51 0v92l164 29v719l-164 30v95l307 55l56 -23v-876l155 -29v-92h-518zM162 1296q0 61 40 104.5t99 43.5q57 0 93 -36t36 -97q0 -63 -39 -107.5t-102 -44.5q-58 0 -92.5 38t-34.5 99z" />
<glyph unicode="j" horiz-adv-x="550" d="M-23 -229l220 51v1018l-166 30v95l307 55l57 -23v-1165q0 -82 -58 -127t-171 -45q-68 0 -128.5 11.5t-60.5 13.5v86zM137 1296q0 61 40 104.5t99 43.5q57 0 93.5 -36t36.5 -97q0 -63 -39 -107.5t-103 -44.5q-57 0 -92 38t-35 99z" />
<glyph unicode="k" horiz-adv-x="1036" d="M37 0v92l164 29v1145l-164 28v92l313 46l49 -35v-783h103l209 258v25l-119 25v92h420v-90l-131 -33l-232 -295l269 -463l169 -41v-92h-360v37q0 35 -16 57l-226 398h-86v-371l148 -29v-92h-510z" />
<glyph unicode="l" horiz-adv-x="595" d="M35 0v92l164 29v1141l-164 30v94l307 46l55 -21v-1290l156 -29v-92h-518z" />
<glyph unicode="m" horiz-adv-x="1767" d="M47 874v91l303 55l62 -88q72 45 157.5 73.5t151.5 28.5q76 0 139.5 -29.5t95.5 -80.5q57 45 162 77.5t185 32.5q123 0 197.5 -73.5t74.5 -196.5v-643l160 -29v-92h-514v92l155 29v594q0 92 -42 130t-148 38q-39 0 -97.5 -8.5t-99.5 -18.5q2 -23 2 -63v-672l135 -29v-92 h-471v92l138 29v594q0 94 -41 131t-148 37q-78 0 -192 -29v-733l155 -29v-92h-518v92l164 29v721z" />
<glyph unicode="n" horiz-adv-x="1196" d="M51 0v92l162 29v719l-162 30v95l320 55l28 -78l7 -8q51 33 143 67.5t178 34.5q133 0 203.5 -73.5t70.5 -210.5v-631l160 -29v-92h-512v92l154 29v596q0 88 -45 126t-154 38t-192 -23v-737l155 -29v-92h-516z" />
<glyph unicode="o" horiz-adv-x="1038" d="M51 492q0 147 56.5 271t166 198.5t263.5 74.5q221 0 333.5 -133t112.5 -364q0 -158 -53 -285t-163 -202t-271 -75q-222 0 -333.5 136.5t-111.5 378.5zM268 502q0 -201 57.5 -297t209.5 -96q133 0 182 97t49 296q0 213 -53.5 306t-192.5 93q-104 0 -158.5 -44t-74 -129 t-19.5 -226z" />
<glyph unicode="p" horiz-adv-x="1114" d="M16 870v95l322 55l35 -88l4 -4q59 49 138 77.5t151 28.5q180 0 276 -118.5t96 -342.5q0 -174 -55 -304t-156.5 -201.5t-236.5 -71.5q-57 0 -113.5 18.5t-99.5 51.5l-2 -9l6 -20v-252l186 -25v-98h-526v94l141 29v1055zM381 170q33 -20 82 -31.5t96 -11.5q137 0 199.5 91 t62.5 294q0 201 -56 285t-192 84q-96 0 -192 -31v-680z" />
<glyph unicode="q" horiz-adv-x="1071" d="M76 449q0 170 57 303t159.5 207.5t233.5 74.5q63 0 123 -20.5t101 -57.5h14l84 58h84v-1229l135 -29v-94h-504v94l170 29v291l6 14l-2 6q-47 -47 -117.5 -73.5t-146.5 -26.5q-193 0 -295 116.5t-102 336.5zM291 506q0 -193 59.5 -282t188.5 -89q49 0 101 14.5t93 40.5 v672q-90 33 -182 33q-260 0 -260 -389z" />
<glyph unicode="r" horiz-adv-x="770" d="M43 874v95l313 53l43 -113q10 10 49 40t91.5 57.5t93.5 27.5q45 0 70.5 -27.5t25.5 -76.5q0 -33 -14.5 -60.5t-30.5 -45t-18 -17.5l-111 31q-35 10 -74 10q-18 0 -80 -12v-711l199 -29v-96h-545v92l148 29v723z" />
<glyph unicode="s" horiz-adv-x="862" d="M72 55l20 264h98l35 -161q76 -55 183 -56q113 0 156.5 42t43.5 124q0 51 -28.5 81t-71.5 46.5t-119 34.5q-100 25 -163.5 52.5t-108.5 88t-45 164.5q0 147 105.5 223t279.5 76q86 0 175 -16.5t124 -32.5l-25 -268h-98l-33 157l-28.5 9.5t-58.5 14.5t-71 7 q-104 0 -146 -32.5t-42 -104.5q0 -63 51 -93t158 -57q102 -29 167.5 -57.5t113 -91.5t47.5 -170q0 -170 -110 -246t-278 -76q-102 0 -199.5 27t-131.5 51z" />
<glyph unicode="t" horiz-adv-x="731" d="M16 893v100l170 43l62 224h137v-244h289v-68l-29 -55h-260v-641q0 -66 25.5 -88.5t81.5 -22.5q49 0 104 13.5t55 15.5l25 -78q4 0 -38 -28.5t-98.5 -52t-113.5 -23.5q-133 0 -186.5 62.5t-53.5 180.5v662h-170z" />
<glyph unicode="u" horiz-adv-x="1167" d="M14 889v90l303 55l64 -28v-658q0 -125 45 -173t166 -48q41 0 93 14.5t91 34.5v682l-168 31v90l303 55l64 -28v-850l151 -33v-90l-307 -43l-39 100l-6 -2q-47 -47 -129 -77.5t-160 -30.5q-147 0 -225 72.5t-78 211.5v594z" />
<glyph unicode="v" horiz-adv-x="956" d="M-45 915v99h475v-101l-129 -24v-31l195 -553l18 -86l21 98l194 539v31l-129 28v99h404v-99l-115 -30l-338 -897h-131l-348 901z" />
<glyph unicode="w" horiz-adv-x="1523" d="M-43 918v96h477v-103l-137 -20v-23l168 -528l18 -90l19 104l194 660h211l189 -674l16 -90l21 104l159 508l2 29l-135 20v103h406v-96l-123 -35l-293 -895h-137l-244 780l-233 -780h-136l-323 899z" />
<glyph unicode="x" horiz-adv-x="1019" d="M-16 0v92l135 31l280 373l-264 387l-135 35v96h483v-99l-100 -16v-27l156 -225l163 221v25l-112 22v99h401v-94l-119 -31l-264 -350l279 -410l149 -37v-92h-487v92l98 19v20l-174 254l-180 -244v-24l125 -25v-92h-434z" />
<glyph unicode="y" horiz-adv-x="960" d="M-49 918v96h485v-103l-135 -18l2 -29l201 -538l10 -64l25 84l194 518l2 25l-137 20v105h412v-99l-117 -28l-422 -1106q-27 -66 -82 -95.5t-151 -29.5q-37 0 -82 6t-76 14v88l250 62l86 203l-338 858z" />
<glyph unicode="z" horiz-adv-x="903" d="M37 0v121l541 743l4 27h-367l-35 -164h-102l-21 287h760v-156l-520 -704l-6 -33h409l33 176h105l20 -297h-821z" />
<glyph unicode="{" horiz-adv-x="444" d="M20 539v79q76 33 121 54l-55 409q-2 10 -2 33q0 119 74.5 202t197.5 118l43 -93q-84 -45 -109.5 -87t-25.5 -132l31 -409q0 -61 -27.5 -89t-64.5 -46q35 -18 63.5 -47t28.5 -91l-33 -438q0 -88 25.5 -129t109.5 -88l-41 -94q-123 39 -198.5 119.5t-75.5 199.5l4 33 l55 440z" />
<glyph unicode="|" horiz-adv-x="739" d="M299 -319v1751h141v-1751h-141z" />
<glyph unicode="}" horiz-adv-x="444" d="M45 1341l43 93q121 -37 196.5 -119t75.5 -201q0 -14 -2 -27l-55 -415l119 -54v-79l-72 -33q-12 -6 -24.5 -12.5t-22.5 -10.5l55 -438l4 -35q0 -119 -75.5 -199.5t-198.5 -119.5l-41 94q84 47 109.5 88t25.5 129l-32 438q0 96 92 138q-92 37 -92 135l30 409 q0 90 -25.5 132t-109.5 87z" />
<glyph unicode="~" horiz-adv-x="1024" d="M119 522l74 105q49 70 129 69q51 0 178 -28l200 -47l156 71l49 -59l-76 -107q-47 -66 -129 -65q-53 0 -104 12t-72 16l-200 48l-154 -72z" />
<glyph unicode="&#xa1;" horiz-adv-x="423" d="M88 938q0 57 36 99t97 42q53 0 86 -34.5t33 -94.5q0 -55 -37 -97t-94 -42q-53 0 -87 35t-34 92zM109 -229l49 948h114l70 -1038q-2 -2 -14.5 -8.5t-38 -11.5t-62.5 -5q-73 0 -95.5 29.5t-22.5 85.5z" />
<glyph unicode="&#xa2;" horiz-adv-x="991" d="M115 647q0 221 99 377t284 193l10 227h127l10 -217q123 -6 184.5 -25.5t63.5 -19.5v-293h-117l-33 168q0 2 -51 13t-100 11q-143 0 -201.5 -94t-58.5 -305q0 -207 69.5 -307.5t219.5 -100.5q70 0 130 9.5t97 18.5t45 13v-88q-8 -6 -41 -27.5t-87 -45t-120 -31.5l-10 -223 h-125l-10 225q-187 22 -286 155.5t-99 366.5z" />
<glyph unicode="&#xa3;" horiz-adv-x="1058" d="M76 0v100q57 45 95 118t38 138v273h-131v135h131v203q0 182 104.5 282.5t302.5 100.5q76 0 167 -14.5t151 -35.5v-301h-113l-47 189q-23 10 -71 16t-95 6q-113 0 -159 -53t-46 -190v-203h265v-135h-265v-273q0 -68 -25.5 -119t-68.5 -73v-10h508l47 215h111v-369h-899z " />
<glyph unicode="&#xa4;" d="M20 236l175 182q-82 111 -82 252q0 135 77 245l-170 181l93 90l180 -172q109 76 239 76q70 0 134.5 -23t115.5 -61l191 178l92 -90l-184 -193q74 -106 73 -231q0 -129 -77 -242l188 -195l-92 -90l-193 187q-109 -80 -248 -80q-135 0 -235 69l-186 -174zM285 670 q0 -66 33.5 -122t91 -90t122.5 -34q66 0 123.5 34t91 90t33.5 122t-33.5 123t-91 91t-123.5 34t-123 -34t-90.5 -91.5t-33.5 -122.5z" />
<glyph unicode="&#xa5;" horiz-adv-x="1150" d="M-8 1235v92h516v-92l-148 -33v-35l283 -534h27l278 538v31l-157 33v92h454v-92l-129 -35l-242 -444l218 -6v-107l-285 -8l-68 -125l353 -12v-107l-357 -4v-256l166 -33v-98h-545v98l166 33v256l-346 8v107l332 8l-72 129l-260 6v107l193 6l-248 444z" />
<glyph unicode="&#xa6;" horiz-adv-x="739" d="M299 -319v747h141v-747h-141zM299 684v748h141v-748h-141z" />
<glyph unicode="&#xa7;" horiz-adv-x="1128" d="M156 508l98 143l434 -264q164 -102 240 -187t76 -188q0 -166 -122 -258t-309 -92q-127 0 -238.5 33t-150.5 65v330h119l41 -217q104 -78 229 -78q123 0 181.5 45t58.5 140q0 70 -55.5 122t-184.5 140q-4 2 -34 22zM180 1108q0 150 107.5 239t312.5 89q106 0 210.5 -18.5 t139.5 -33.5v-323h-112l-41 199q-6 2 -31 9t-70 14t-100 7q-113 0 -162 -35.5t-49 -124.5q0 -47 25.5 -84.5t75 -75.5t153.5 -110l41 -29l367 -241l-101 -148l-352 226l-70 45q-127 80 -193.5 131t-108.5 115.5t-42 148.5z" />
<glyph unicode="&#xa8;" horiz-adv-x="684" d="M0 1294q0 55 37 95.5t90 40.5t85 -33t32 -90t-35 -97.5t-92 -40.5q-51 0 -84 35t-33 90zM440 1294q0 55 37 95.5t90 40.5t85 -33t32 -90t-35 -97.5t-92 -40.5q-51 0 -84 35t-33 90z" />
<glyph unicode="&#xa9;" horiz-adv-x="1337" d="M2 666q0 182 90 335.5t243.5 243.5t336.5 90q182 0 334.5 -90t242.5 -243.5t90 -335.5t-90 -335t-242.5 -243t-334.5 -90t-336 90t-244 242.5t-90 335.5zM137 664q0 -150 69.5 -277t191.5 -200.5t272 -73.5q149 0 273 73.5t194.5 200.5t70.5 277t-70.5 276.5t-194.5 200 t-273 73.5q-150 0 -272 -73.5t-191.5 -200.5t-69.5 -276zM334 662q0 96 42 177t118.5 128t179.5 47q70 0 132 -8.5t97 -20.5v-203h-76l-20 107q-43 14 -113 14q-74 0 -115.5 -21.5t-61 -73.5t-19.5 -149q0 -129 48 -181t150 -52q82 0 119 25l23 112h71v-201 q-104 -45 -254 -45q-322 0 -321 345z" />
<glyph unicode="&#xaa;" horiz-adv-x="770" d="M47 903q0 84 61.5 138.5t170.5 70.5l159 23v88q0 59 -31.5 86.5t-97.5 27.5q-31 0 -76 -8l-26 -119q-20 -10 -62 -10q-76 0 -75 70q0 41 45 82t114.5 67.5t141.5 26.5q111 0 171 -43t60 -125v-424l103 -29v-63q-33 -14 -78 -23.5t-80 -9.5q-84 0 -103 66l-6 -2 q-33 -31 -85 -50.5t-101 -19.5q-94 0 -149.5 49t-55.5 131zM215 926q0 -41 30.5 -63.5t86.5 -22.5q24 0 54 6t52 16v182q-119 -8 -171 -35.5t-52 -82.5z" />
<glyph unicode="&#xab;" horiz-adv-x="798" d="M63 502q0 29 89 129l206 229l70 -45l-168 -313l168 -320l-70 -45l-194 217q-10 13 -38 45.5t-45.5 59t-17.5 43.5zM391 502q0 31 86 129l207 229l72 -45l-168 -313l168 -320l-72 -45l-192 217l-38.5 45.5t-45 59t-17.5 43.5z" />
<glyph unicode="&#xac;" d="M80 604v141h870v-501h-129v360h-741z" />
<glyph unicode="&#xad;" horiz-adv-x="641" d="M80 477v139l450 35v-174h-450z" />
<glyph unicode="&#xae;" horiz-adv-x="1415" d="M109 1030q0 156 76.5 286t206.5 206.5t286 76.5t286 -76.5t206.5 -206.5t76.5 -286t-76.5 -286t-206.5 -206.5t-286 -76.5t-286 76.5t-206.5 206.5t-76.5 286zM238 1030q0 -125 58 -228.5t158.5 -163.5t223.5 -60q121 0 222 60t159.5 163.5t58.5 228.5t-58.5 228.5 t-159.5 164t-222 60.5q-123 0 -223.5 -60.5t-158.5 -164t-58 -228.5zM365 731v60l81 14v440l-75 12v70h354q90 0 143.5 -43t53.5 -115q0 -63 -35 -112t-92 -70l123 -176l79 -18v-60h-163q-35 0 -50 27l-131 201h-57v-156l82 -14v-60h-313zM596 1040h51q59 0 88 29t29 88 q0 47 -22.5 67.5t-77.5 20.5q-35 0 -68 -6v-199z" />
<glyph unicode="&#xaf;" horiz-adv-x="716" d="M2 1229l23 133h688l-23 -133h-688z" />
<glyph unicode="&#xb0;" horiz-adv-x="487" d="M35 1167q0 88 59.5 148.5t147.5 60.5t148.5 -60.5t60.5 -148.5t-60.5 -147t-148.5 -59t-147.5 59t-59.5 147zM145 1165q0 -41 28 -68.5t69 -27.5q43 0 71.5 27.5t28.5 68.5q0 43 -28.5 72t-71.5 29q-41 0 -69 -29t-28 -72z" />
<glyph unicode="&#xb1;" d="M131 596v141h332v342h155v-342h332v-141h-332v-336h-155v336h-332zM133 -6v143h815v-143h-815z" />
<glyph unicode="&#xb2;" horiz-adv-x="706" d="M70 737v90l182 170q92 86 134 136.5t42 101.5q0 55 -29.5 74.5t-91.5 19.5q-35 0 -63.5 -7t-36.5 -11l-23 -121h-98v192q35 25 100.5 47.5t139.5 22.5q135 0 207.5 -45t72.5 -147q0 -80 -48 -144.5t-177 -171.5l-102 -82v-8h247l23 111h94v-228h-573z" />
<glyph unicode="&#xb3;" horiz-adv-x="706" d="M96 774l4 182h101l10 -94q45 -23 121 -22q70 0 104.5 23.5t34.5 74.5q0 63 -36 89t-107 26h-52l-20 51v55h53q66 0 105 21.5t39 68.5t-32 66.5t-91 19.5q-37 0 -69 -7t-40 -11l-18 -117h-99l-4 189q35 20 99.5 41.5t146.5 21.5q131 0 198.5 -46t67.5 -132 q0 -59 -32.5 -97t-81.5 -55q143 -39 143 -172q0 -106 -86 -165.5t-221 -59.5q-57 0 -129 15.5t-109 33.5z" />
<glyph unicode="&#xb4;" horiz-adv-x="419" d="M0 1165l215 244q31 35 51.5 51.5t42.5 16.5q33 0 66 -38t45 -104l-359 -239z" />
<glyph unicode="&#xb5;" horiz-adv-x="1107" d="M137 -305v1317l135 22l64 -28v-664q0 -123 44 -168t165 -45q39 0 92 12.5t92 30.5v840l137 22l64 -28v-861l160 -26v-86q-49 -18 -113 -30.5t-113 -12.5q-100 0 -127 96h-10q-61 -47 -146 -76.5t-153 -29.5q-86 0 -143 24q10 -33 14 -61l23 -256l-121 -21z" />
<glyph unicode="&#xb6;" horiz-adv-x="1316" d="M133 864q0 143 64.5 249t168 160t212.5 54h651v-100l-152 -29h-342v-1280h-160v483q-108 0 -210.5 55.5t-167 161t-64.5 246.5zM446 -242l269 33q76 8 114.5 29.5t53 57.5t14.5 99v1113h160v-1153q0 -117 -68.5 -196t-214.5 -79h-328v96z" />
<glyph unicode="&#xb7;" horiz-adv-x="391" d="M66 532q0 59 38.5 102.5t98.5 43.5q57 0 91 -35t34 -96t-37 -105.5t-101 -44.5q-55 0 -89.5 38t-34.5 97z" />
<glyph unicode="&#xb8;" horiz-adv-x="356" d="M-27 -352l35 82q59 -25 115 -25q106 0 106 59q0 27 -13 38.5t-46 17.5l-70 14l-43 41l56 125h88v-59l37 -11q72 -16 108.5 -42.5t36.5 -88.5q0 -96 -70.5 -141t-181.5 -45q-49 0 -85 8t-73 27z" />
<glyph unicode="&#xb9;" horiz-adv-x="706" d="M104 1319v100l236 21h121v-598l186 -4v-101h-534v103l186 6v473h-195z" />
<glyph unicode="&#xba;" horiz-adv-x="790" d="M51 1075q0 100 43 186.5t123 138.5t186 52q156 0 244 -93t88 -251q0 -104 -41 -191.5t-120.5 -139.5t-194.5 -52q-160 0 -244 93t-84 257zM227 1083q0 -133 38 -186t141 -53q88 0 121.5 57t33.5 182q0 133 -36 185.5t-130 52.5q-102 0 -135 -56.5t-33 -181.5z" />
<glyph unicode="&#xbb;" horiz-adv-x="798" d="M43 182l168 318l-168 315l72 45l207 -229q4 -6 46 -56.5t42 -74.5q0 -16 -20.5 -45t-45.5 -57.5t-35 -43.5l-194 -217zM371 182l168 318l-168 315l71 45l205 -229q88 -100 88 -131q0 -18 -23.5 -50t-46 -60t-30.5 -36l-193 -217z" />
<glyph unicode="&#xbc;" horiz-adv-x="1560" d="M55 1217v100l193 20h121v-598l143 -4v-100h-449v102l144 6v474h-152zM186 -4l988 1421l116 -78l-985 -1423zM834 276l370 467l133 -47v-397h115v-104h-115v-93l133 -10v-92h-428v90l136 12v93h-297zM991 299h187v254l-187 -248v-6z" />
<glyph unicode="&#xbd;" horiz-adv-x="1511" d="M45 1217v100l193 20h120v-598l144 -4v-100h-449v102l144 6v474h-152zM152 -4l987 1421l114 -78l-983 -1421zM874 0v92l183 168q90 84 133 136.5t43 101.5q0 55 -28.5 74.5t-90.5 19.5q-35 0 -64.5 -7t-37.5 -12l-23 -120h-98v194q37 25 102.5 46.5t136.5 21.5 q135 0 208 -44t73 -147q0 -80 -48 -144.5t-177 -170.5l-101 -84v-8h246l23 110h94v-227h-574z" />
<glyph unicode="&#xbe;" horiz-adv-x="1468" d="M55 672l6 182h99l12 -94q37 -23 119 -23q70 0 104.5 22.5t34.5 76.5q0 63 -36 88.5t-107 25.5h-51l-21 51v56h53q66 0 106 21.5t40 68.5t-33 66.5t-92 19.5q-37 0 -68 -7t-39 -12l-18 -116h-101l-4 188q39 23 102.5 43.5t143.5 20.5q131 0 198.5 -46.5t67.5 -132.5 q0 -59 -32.5 -97t-81.5 -54q143 -39 143 -172q0 -106 -86 -165.5t-221 -59.5q-57 0 -129 15t-109 34zM207 -4l985 1421l117 -78l-983 -1423zM780 276l371 467l133 -47v-397h115v-104h-115v-93l133 -10v-92h-428v90l135 12v93h-297zM938 299h186v254l-186 -248v-6z" />
<glyph unicode="&#xbf;" horiz-adv-x="741" d="M57 102q0 123 68 204t174 116l109 35l43 239h124l9 -348l-187 -67q-88 -31 -124.5 -84.5t-36.5 -155.5q0 -76 20 -111.5t66.5 -48t138.5 -12.5h194q2 -4 9.5 -16.5t13.5 -31t6 -38.5q0 -59 -36 -86t-144 -27q-129 0 -230.5 53.5t-159 150.5t-57.5 228zM381 922 q0 57 36 99t97 42q53 0 86 -36t33 -93t-38 -98t-93 -41q-53 0 -87 34.5t-34 92.5z" />
<glyph unicode="&#xc0;" horiz-adv-x="1273" d="M-18 0v96l131 31l440 1212h143l463 -1212l135 -31v-96h-532v96l151 31l-6 41l-78 209h-469l-73 -211l-4 -39l159 -31v-96h-460zM354 1554q-2 74 22.5 118t67.5 44q16 0 42 -14t51 -31l276 -201l-47 -81zM406 508h380l-182 500l-8 30l-6 6l-10 -40z" />
<glyph unicode="&#xc1;" horiz-adv-x="1273" d="M-18 0v96l131 31l440 1212h143l463 -1212l135 -31v-96h-532v96l151 31l-6 41l-78 209h-469l-73 -211l-4 -39l159 -31v-96h-460zM406 508h380l-182 500l-8 30l-6 6l-10 -40zM416 1470l274 201q10 6 30.5 19.5t35 19.5t26.5 6q45 0 70 -44t22 -118l-411 -165z" />
<glyph unicode="&#xc2;" horiz-adv-x="1273" d="M-18 0v96l131 31l440 1212h143l463 -1212l135 -31v-96h-532v96l151 31l-6 41l-78 209h-469l-73 -211l-4 -39l159 -31v-96h-460zM295 1464l188 154q76 61 100.5 78.5t41.5 17.5q18 0 41.5 -15.5t62.5 -49.5l37 -31l180 -143l-65 -91l-267 132l-268 -130zM406 508h380 l-182 500l-8 30l-6 6l-10 -40z" />
<glyph unicode="&#xc3;" horiz-adv-x="1273" d="M-18 0v96l131 31l440 1212h143l463 -1212l135 -31v-96h-532v96l151 31l-6 41l-78 209h-469l-73 -211l-4 -39l159 -31v-96h-460zM260 1499l74 103q27 41 61.5 56t79.5 15q51 0 135 -26l174 -58l160 76l55 -59l-73 -103q-27 -41 -62 -56t-80 -15q-51 0 -135 26l-174 58 l-158 -76zM406 508h380l-182 500l-8 30l-6 6l-10 -40z" />
<glyph unicode="&#xc4;" horiz-adv-x="1273" d="M-18 0v96l131 31l440 1212h143l463 -1212l135 -31v-96h-532v96l151 31l-6 41l-78 209h-469l-73 -211l-4 -39l159 -31v-96h-460zM274 1536q0 55 37 95t90 40t85 -32.5t32 -90.5q0 -57 -34.5 -97t-92.5 -40q-51 0 -84 35t-33 90zM406 508h380l-182 500l-8 30l-6 6l-10 -40z M729 1536q0 55 36 95t89 40t85 -32.5t32 -90.5q0 -57 -35 -97t-92 -40q-51 0 -83 35t-32 90z" />
<glyph unicode="&#xc5;" horiz-adv-x="1273" d="M-18 0v96l131 31l440 1212h14q-72 12 -103.5 55.5t-31.5 118.5q0 86 54.5 135.5t144.5 49.5q88 0 138 -44t50 -128q0 -164 -147 -187h24l463 -1212l135 -31v-96h-532v96l151 31l-6 41l-78 209h-469l-73 -211l-4 -39l159 -31v-96h-460zM406 508h380l-182 500l-8 30l-6 6 l-10 -40zM545 1522q0 -52 16.5 -70t67.5 -18q45 0 61.5 19.5t16.5 64.5q0 47 -15.5 66.5t-64.5 19.5q-45 0 -63.5 -17.5t-18.5 -64.5z" />
<glyph unicode="&#xc6;" horiz-adv-x="1679" d="M-16 0v96l137 31l565 1200h817l10 -350h-110l-53 225h-209l-162 -14l43 -512h258l35 112h92l12 -358h-92l-41 117h-254l37 -404q72 -14 174 -14h230l40 227h111l10 -356h-944l-4 96l168 37l-37 412h-344l-176 -381l-6 -37l153 -31v-96h-460zM537 676h270l-43 508z" />
<glyph unicode="&#xc7;" horiz-adv-x="1249" d="M86 647q0 193 80 355.5t226.5 258t336.5 95.5q248 0 408 -60v-335h-115l-43 223q-123 35 -258 35q-143 0 -228 -57.5t-123 -180.5t-38 -328q0 -270 101.5 -409.5t293.5 -139.5q152 0 205 33t55 35l43 219h115v-328q-82 -37 -170 -60t-225 -30v-32l36 -11 q72 -16 109 -42.5t37 -88.5q0 -96 -70.5 -141t-181.5 -45q-49 0 -85 8t-73 27l35 82q60 -25 115 -25q106 0 106 59q0 27 -13 38.5t-46 17.5l-70 14l-43 41l43 100q-283 10 -423 181.5t-140 490.5z" />
<glyph unicode="&#xc8;" horiz-adv-x="1177" d="M100 0v96l168 37v1063l-168 35v96h963v-350h-113l-45 225h-258l-168 -14v-451h289l35 127h92v-381h-92l-35 133h-289v-473q80 -14 183 -14h260l49 227h110v-356h-981zM375 1554q-2 74 23.5 118t68.5 44q16 0 42 -14t50 -31l275 -201l-46 -81z" />
<glyph unicode="&#xc9;" horiz-adv-x="1177" d="M100 0v96l168 37v1063l-168 35v96h963v-350h-113l-45 225h-258l-168 -14v-451h289l35 127h92v-381h-92l-35 133h-289v-473q80 -14 183 -14h260l49 227h110v-356h-981zM424 1470l274 201q10 6 31 19.5t35 19.5t27 6q45 0 69.5 -44t22.5 -118l-412 -165z" />
<glyph unicode="&#xca;" horiz-adv-x="1177" d="M100 0v96l168 37v1063l-168 35v96h963v-350h-113l-45 225h-258l-168 -14v-451h289l35 127h92v-381h-92l-35 133h-289v-473q80 -14 183 -14h260l49 227h110v-356h-981zM287 1464l188 154q76 61 100.5 78.5t40.5 17.5q18 0 42 -15.5t63 -49.5l37 -31l180 -143l-66 -91 l-266 132l-268 -130z" />
<glyph unicode="&#xcb;" horiz-adv-x="1177" d="M100 0v96l168 37v1063l-168 35v96h963v-350h-113l-45 225h-258l-168 -14v-451h289l35 127h92v-381h-92l-35 133h-289v-473q80 -14 183 -14h260l49 227h110v-356h-981zM276 1546q0 55 36 94t91 39q53 0 85 -32.5t32 -87.5q0 -57 -34.5 -97.5t-92.5 -40.5q-51 0 -84 35 t-33 90zM731 1546q0 55 36 94t89 39t85 -32.5t32 -87.5q0 -57 -35 -97.5t-92 -40.5q-51 0 -83 35t-32 90z" />
<glyph unicode="&#xcc;" horiz-adv-x="757" d="M106 0v98l166 33v1065l-166 33v98h545v-98l-166 -33v-1065l166 -33v-98h-545zM143 1554q-2 74 24 118t66 44q16 0 38 -11t35 -20.5t20 -13.5l276 -201l-47 -81z" />
<glyph unicode="&#xcd;" horiz-adv-x="757" d="M106 0v98l166 33v1065l-166 33v98h545v-98l-166 -33v-1065l166 -33v-98h-545zM158 1470l274 201q10 6 30.5 19.5t35 19.5t26.5 6q45 0 69.5 -44t22.5 -118l-411 -165z" />
<glyph unicode="&#xce;" horiz-adv-x="757" d="M47 1464l186 154l33 27q49 41 70.5 55t38.5 14q16 0 40.5 -16.5t57.5 -43t45 -36.5l180 -143l-67 -91l-264 132l-269 -130zM106 0v98l166 33v1065l-166 33v98h545v-98l-166 -33v-1065l166 -33v-98h-545z" />
<glyph unicode="&#xcf;" horiz-adv-x="757" d="M31 1546q0 55 35.5 94t91.5 39q53 0 84.5 -32.5t31.5 -87.5q0 -57 -34.5 -97.5t-92.5 -40.5q-51 0 -83.5 35t-32.5 90zM106 0v98l166 33v1065l-166 33v98h545v-98l-166 -33v-1065l166 -33v-98h-545zM483 1546q0 55 36 94t91 39q53 0 85 -32.5t32 -87.5q0 -57 -35 -97.5 t-92 -40.5q-51 0 -84 35t-33 90z" />
<glyph unicode="&#xd0;" horiz-adv-x="1464" d="M106 618v130h175v446l-168 37v96h632q301 0 463 -167t162 -482q0 -203 -82 -356.5t-231.5 -237.5t-345.5 -84h-598v96l168 37v485h-175zM489 135q60 -14 166 -14q176 0 277.5 54t147.5 175t46 330q0 281 -110.5 399.5t-337.5 118.5q-86 0 -189 -10v-440h326v-130h-326 v-483z" />
<glyph unicode="&#xd1;" horiz-adv-x="1492" d="M100 0v94l150 35v1069l-133 29v100h348l612 -967l23 -41h14v879l-147 35v94h444v-94l-149 -35v-1198h-207l-629 987l-14 27h-15v-885l150 -35v-94h-447zM391 1499l76 103q27 41 61.5 56t77.5 15q53 0 137 -26l175 -58l157 76l58 -59l-74 -103q-29 -41 -63.5 -56 t-77.5 -15q-56 -1 -136 26l-176 58l-157 -76z" />
<glyph unicode="&#xd2;" horiz-adv-x="1431" d="M86 641q0 203 79 365.5t229.5 256t355.5 93.5q283 0 439.5 -177.5t156.5 -488.5q0 -209 -71 -371.5t-215.5 -256t-357.5 -93.5q-299 0 -457.5 176.5t-158.5 495.5zM332 666q0 -301 101.5 -432.5t309.5 -131.5q187 0 272 134.5t85 410.5q0 221 -45 347t-128 175.5 t-208 49.5q-127 0 -209 -41t-130 -161t-48 -351zM479 1554q-2 74 23.5 118t68.5 44q16 0 42 -14t51 -31l274 -201l-45 -81z" />
<glyph unicode="&#xd3;" horiz-adv-x="1431" d="M86 641q0 203 79 365.5t229.5 256t355.5 93.5q283 0 439.5 -177.5t156.5 -488.5q0 -209 -71 -371.5t-215.5 -256t-357.5 -93.5q-299 0 -457.5 176.5t-158.5 495.5zM332 666q0 -301 101.5 -432.5t309.5 -131.5q187 0 272 134.5t85 410.5q0 221 -45 347t-128 175.5 t-208 49.5q-127 0 -209 -41t-130 -161t-48 -351zM504 1470l276 201q25 16 50.5 30.5t41.5 14.5q43 0 68 -45t23 -117l-412 -165z" />
<glyph unicode="&#xd4;" horiz-adv-x="1431" d="M86 641q0 203 79 365.5t229.5 256t355.5 93.5q283 0 439.5 -177.5t156.5 -488.5q0 -209 -71 -371.5t-215.5 -256t-357.5 -93.5q-299 0 -457.5 176.5t-158.5 495.5zM332 666q0 -301 101.5 -432.5t309.5 -131.5q187 0 272 134.5t85 410.5q0 221 -45 347t-128 175.5 t-208 49.5q-127 0 -209 -41t-130 -161t-48 -351zM393 1464l189 154q76 61 100.5 78.5t40.5 17.5q18 0 41.5 -15.5t62.5 -49.5l37 -31l180 -143l-65 -91l-266 132l-269 -130z" />
<glyph unicode="&#xd5;" horiz-adv-x="1431" d="M86 641q0 203 79 365.5t229.5 256t355.5 93.5q283 0 439.5 -177.5t156.5 -488.5q0 -209 -71 -371.5t-215.5 -256t-357.5 -93.5q-299 0 -457.5 176.5t-158.5 495.5zM332 666q0 -301 101.5 -432.5t309.5 -131.5q187 0 272 134.5t85 410.5q0 221 -45 347t-128 175.5 t-208 49.5q-127 0 -209 -41t-130 -161t-48 -351zM360 1499l74 103q27 41 61.5 56t79.5 15q51 0 136 -26l174 -58l159 76l56 -59l-74 -103q-27 -41 -61.5 -56t-79.5 -15q-51 -1 -135 26l-175 58l-157 -76z" />
<glyph unicode="&#xd6;" horiz-adv-x="1431" d="M86 641q0 203 79 365.5t229.5 256t355.5 93.5q283 0 439.5 -177.5t156.5 -488.5q0 -209 -71 -371.5t-215.5 -256t-357.5 -93.5q-299 0 -457.5 176.5t-158.5 495.5zM332 666q0 -301 101.5 -432.5t309.5 -131.5q187 0 272 134.5t85 410.5q0 221 -45 347t-128 175.5 t-208 49.5q-127 0 -209 -41t-130 -161t-48 -351zM375 1546q0 55 35.5 94t91.5 39q53 0 84.5 -32.5t31.5 -87.5q0 -57 -34.5 -97.5t-91.5 -40.5q-52 0 -84.5 35t-32.5 90zM829 1546q0 55 36 94t89 39t85 -32.5t32 -87.5q0 -57 -35 -97.5t-92 -40.5q-51 0 -83 35t-32 90z" />
<glyph unicode="&#xd7;" d="M170 291l264 264l-264 266l109 109l262 -266l264 266l113 -113l-265 -264l265 -264l-109 -109l-264 264l-266 -264z" />
<glyph unicode="&#xd8;" horiz-adv-x="1431" d="M86 641q0 203 79 365.5t229.5 256t355.5 93.5q74 0 165 -19l62 138l129 -58l-57 -129q143 -78 220 -230.5t77 -367.5q0 -209 -71 -371.5t-215.5 -256t-357.5 -93.5q-104 0 -206 27l-62 -146l-133 58l61 143q-137 80 -206.5 229.5t-69.5 360.5zM332 666q0 -299 106 -435 l418 969q-61 19 -137 19q-127 0 -209 -41t-130 -161t-48 -351zM555 137q75 -35 188 -35q186 0 271.5 134.5t85.5 410.5q0 182 -31 297t-90 178z" />
<glyph unicode="&#xd9;" horiz-adv-x="1470" d="M66 1229v98h542v-98l-164 -33v-627q0 -184 30 -279t101.5 -133t210.5 -38q121 0 187.5 47t94.5 143.5t28 259.5v625l-166 33v100h487v-100l-166 -33v-625q0 -209 -47 -339t-160.5 -195.5t-312.5 -65.5q-196 0 -304 63.5t-151 192.5t-43 344v627zM496 1554q-2 74 23.5 118 t66.5 44q16 0 37.5 -11t35 -20.5t19.5 -13.5l276 -201l-47 -81z" />
<glyph unicode="&#xda;" horiz-adv-x="1470" d="M66 1229v98h542v-98l-164 -33v-627q0 -184 30 -279t101.5 -133t210.5 -38q121 0 187.5 47t94.5 143.5t28 259.5v625l-166 33v100h487v-100l-166 -33v-625q0 -209 -47 -339t-160.5 -195.5t-312.5 -65.5q-196 0 -304 63.5t-151 192.5t-43 344v627zM575 1470l275 201 q10 6 30.5 19.5t35 19.5t26.5 6q45 0 69.5 -44t22.5 -118l-411 -165z" />
<glyph unicode="&#xdb;" horiz-adv-x="1470" d="M66 1229v98h542v-98l-164 -33v-627q0 -184 30 -279t101.5 -133t210.5 -38q121 0 187.5 47t94.5 143.5t28 259.5v625l-166 33v100h487v-100l-166 -33v-625q0 -209 -47 -339t-160.5 -195.5t-312.5 -65.5q-197 0 -304.5 63.5t-150.5 192.5t-43 344v627zM438 1464l189 154 l32 27q51 41 73 55t38 14t35.5 -13t64.5 -50q41 -35 39 -33l183 -143l-68 -91l-266 132l-266 -130z" />
<glyph unicode="&#xdc;" horiz-adv-x="1470" d="M66 1229v98h542v-98l-164 -33v-627q0 -184 30 -279t101.5 -133t210.5 -38q121 0 187.5 47t94.5 143.5t28 259.5v625l-166 33v100h487v-100l-166 -33v-625q0 -209 -47 -339t-160.5 -195.5t-312.5 -65.5q-196 0 -304 63.5t-151 192.5t-43 344v627zM414 1561q0 55 35.5 94 t91.5 39q53 0 84.5 -33t31.5 -88q0 -57 -34.5 -97t-92.5 -40q-51 0 -83.5 34.5t-32.5 90.5zM866 1561q0 55 36 94t91 39q53 0 85 -33t32 -88q0 -57 -35 -97t-92 -40q-51 0 -84 34.5t-33 90.5z" />
<glyph unicode="&#xdd;" horiz-adv-x="1214" d="M-14 1235v92h516v-92l-146 -33v-35l281 -534h27l278 538v31l-156 33v92h453v-92l-129 -35l-381 -696v-373l166 -33v-98h-545v98l166 33v354l-401 717zM440 1470l277 201q25 16 50.5 30.5t41.5 14.5q43 0 67.5 -45t22.5 -117l-412 -165z" />
<glyph unicode="&#xde;" horiz-adv-x="1161" d="M106 0v98l166 33v1065l-166 33v98h545v-98l-166 -33v-152h179q229 0 336.5 -73.5t107.5 -247.5q0 -414 -490 -414h-133v-178l166 -33v-98h-545zM485 428h105q158 0 227.5 59.5t69.5 198.5q0 125 -62.5 178.5t-193.5 53.5l-146 -3v-487z" />
<glyph unicode="&#xdf;" horiz-adv-x="1247" d="M51 0v92l148 29v766h-136v106l134 29q2 199 125.5 307.5t324.5 108.5q168 0 272.5 -76t104.5 -213q0 -123 -98 -209q-29 -27 -74 -57q-61 -45 -92 -80t-31 -86q0 -55 37 -80t127 -53q90 -31 148.5 -61.5t94 -87t35.5 -146.5q0 -158 -104 -235t-256 -77q-96 0 -183 27 t-120 51l20 264h99l35 -161q25 -23 64.5 -39.5t94.5 -16.5q86 0 127 43t41 113q0 49 -19.5 76.5t-58.5 45t-120 42.5q-80 27 -129.5 52.5t-84 77.5t-34.5 138q0 72 24.5 123t55 82t86.5 74q61 47 88.5 82.5t27.5 95.5q0 70 -48 109.5t-148 39.5q-231 0 -232 -229v-1067h-346 z" />
<glyph unicode="&#xe0;" horiz-adv-x="1001" d="M68 240q0 129 92 205.5t266 101.5l197 31v147q0 86 -45.5 127t-141.5 41q-45 0 -76.5 -6t-40.5 -8l-30 -189q-4 -2 -25.5 -9t-52.5 -7q-47 0 -78 26.5t-31 75.5q0 80 74 138.5t175.5 89t174.5 30.5q143 0 218 -65.5t75 -182.5v-639l148 -28v-86q-8 -4 -39 -14.5 t-77 -19.5t-95 -9q-59 0 -85 25.5t-34 70.5h-12q-27 -31 -101.5 -67.5t-163.5 -36.5q-147 0 -219.5 73.5t-72.5 184.5zM258 1335q12 66 45 104t66 38q23 0 41 -15.5t51 -52.5l217 -244l-64 -69zM281 272q0 -66 46 -106.5t132 -40.5q55 0 99 13.5t65 23.5v305 q-186 -14 -264 -60.5t-78 -134.5z" />
<glyph unicode="&#xe1;" horiz-adv-x="1001" d="M68 240q0 129 92 205.5t266 101.5l197 31v147q0 86 -45.5 127t-141.5 41q-45 0 -76.5 -6t-40.5 -8l-30 -189q-4 -2 -25.5 -9t-52.5 -7q-47 0 -78 26.5t-31 75.5q0 80 74 138.5t175.5 89t174.5 30.5q143 0 218 -65.5t75 -182.5v-639l148 -28v-86q-8 -4 -39 -14.5 t-77 -19.5t-95 -9q-59 0 -85 25.5t-34 70.5h-12q-27 -31 -101.5 -67.5t-163.5 -36.5q-147 0 -219.5 73.5t-72.5 184.5zM281 272q0 -66 46 -106.5t132 -40.5q55 0 99 13.5t65 23.5v305q-186 -14 -264 -60.5t-78 -134.5zM297 1165l215 244q29 33 49.5 50.5t42.5 17.5 q33 0 67 -38t46 -104l-359 -239z" />
<glyph unicode="&#xe2;" horiz-adv-x="1001" d="M68 240q0 129 92 205.5t266 101.5l197 31v147q0 86 -45.5 127t-141.5 41q-45 0 -76.5 -6t-40.5 -8l-30 -189q-4 -2 -25.5 -9t-52.5 -7q-47 0 -78 26.5t-31 75.5q0 80 74 138.5t175.5 89t174.5 30.5q143 0 218 -65.5t75 -182.5v-639l148 -28v-86q-8 -4 -39 -14.5 t-77 -19.5t-95 -9q-59 0 -85 25.5t-34 70.5h-12q-27 -31 -101.5 -67.5t-163.5 -36.5q-147 0 -219.5 73.5t-72.5 184.5zM172 1184l213 217q59 59 102 59q35 0 82 -47l217 -223l-73 -80l-244 166l-238 -164zM281 272q0 -66 46 -106.5t132 -40.5q55 0 99 13.5t65 23.5v305 q-186 -14 -264 -60.5t-78 -134.5z" />
<glyph unicode="&#xe3;" horiz-adv-x="1001" d="M68 240q0 129 92 205.5t266 101.5l197 31v147q0 86 -45.5 127t-141.5 41q-45 0 -76.5 -6t-40.5 -8l-30 -189q-4 -2 -25.5 -9t-52.5 -7q-47 0 -78 26.5t-31 75.5q0 80 74 138.5t175.5 89t174.5 30.5q143 0 218 -65.5t75 -182.5v-639l148 -28v-86q-8 -4 -39 -14.5 t-77 -19.5t-95 -9q-59 0 -85 25.5t-34 70.5h-12q-27 -31 -101.5 -67.5t-163.5 -36.5q-147 0 -219.5 73.5t-72.5 184.5zM104 1233l64 104q23 37 58.5 56.5t76.5 19.5q39 0 150 -31l176 -55l143 74l53 -49l-63 -107q-47 -76 -133 -76q-39 0 -91.5 14.5t-60.5 16.5l-176 55 l-143 -71zM281 272q0 -66 46 -106.5t132 -40.5q55 0 99 13.5t65 23.5v305q-186 -14 -264 -60.5t-78 -134.5z" />
<glyph unicode="&#xe4;" horiz-adv-x="1001" d="M68 240q0 129 92 205.5t266 101.5l197 31v147q0 86 -45.5 127t-141.5 41q-45 0 -76.5 -6t-40.5 -8l-30 -189q-4 -2 -25.5 -9t-52.5 -7q-47 0 -78 26.5t-31 75.5q0 80 74 138.5t175.5 89t174.5 30.5q143 0 218 -65.5t75 -182.5v-639l148 -28v-86q-8 -4 -39 -14.5 t-77 -19.5t-95 -9q-59 0 -85 25.5t-34 70.5h-12q-27 -31 -101.5 -67.5t-163.5 -36.5q-147 0 -219.5 73.5t-72.5 184.5zM121 1294q0 55 37 95.5t90 40.5q51 0 84 -34t33 -89q0 -57 -35 -97.5t-92 -40.5q-52 0 -84.5 35t-32.5 90zM281 272q0 -66 46 -106.5t132 -40.5 q55 0 99 13.5t65 23.5v305q-186 -14 -264 -60.5t-78 -134.5zM561 1294q0 55 37 95.5t90 40.5t85 -33t32 -90t-35 -97.5t-92 -40.5q-51 0 -84 35t-33 90z" />
<glyph unicode="&#xe5;" horiz-adv-x="1001" d="M68 240q0 129 92 205.5t266 101.5l197 31v147q0 86 -45.5 127t-141.5 41q-45 0 -76.5 -6t-40.5 -8l-30 -189q-4 -2 -25.5 -9t-52.5 -7q-47 0 -78 26.5t-31 75.5q0 80 74 138.5t175.5 89t174.5 30.5q143 0 218 -65.5t75 -182.5v-639l148 -28v-86q-8 -4 -39 -14.5 t-77 -19.5t-95 -9q-59 0 -85 25.5t-34 70.5h-12q-27 -31 -101.5 -67.5t-163.5 -36.5q-147 0 -219.5 73.5t-72.5 184.5zM272 1290q0 82 54.5 138.5t152.5 56.5q94 0 143.5 -50.5t49.5 -131.5q0 -82 -55.5 -136.5t-151.5 -54.5t-144.5 48t-48.5 130zM281 272q0 -66 46 -106.5 t132 -40.5q55 0 99 13.5t65 23.5v305q-186 -14 -264 -60.5t-78 -134.5zM395 1298q0 -57 17.5 -76.5t60.5 -19.5t59.5 21.5t16.5 74.5t-18.5 73t-61.5 20t-58.5 -20.5t-15.5 -72.5z" />
<glyph unicode="&#xe6;" horiz-adv-x="1517" d="M84 240q0 137 99.5 217t265.5 90l188 12v158q0 86 -44 127t-140 41q-45 0 -76 -6.5t-39 -8.5l-41 -180q-4 -2 -25.5 -9t-50.5 -7q-49 0 -76.5 22.5t-27.5 77.5q0 82 74.5 141.5t176 89t175.5 29.5q90 0 156.5 -31.5t101.5 -89.5q53 59 126.5 90t159.5 31q205 0 286 -124 t81 -349q0 -49 -17.5 -68.5t-54.5 -21.5l-534 -14q0 -150 51 -236t207 -86q82 0 146.5 8.5t100.5 17.5l44 11l24 -74q0 -4 -46 -34.5t-120.5 -57t-171.5 -26.5q-229 0 -338 133q-139 -131 -366 -131q-150 0 -222.5 73.5t-72.5 184.5zM297 279q0 -68 43 -111t133 -43 q53 0 96 16.5t68 30.5v274q-188 -6 -264 -43.5t-76 -123.5zM852 571l397 25q6 37 6 78q0 125 -39.5 170t-146.5 45q-117 0 -166 -86t-51 -232z" />
<glyph unicode="&#xe7;" horiz-adv-x="925" d="M74 481q0 164 58 290t164.5 194.5t246.5 68.5q150 0 238.5 -73.5t88.5 -184.5q0 -43 -27.5 -73.5t-86.5 -30.5q-45 0 -68 14l-35 195q-18 8 -51 14t-65 6q-139 0 -194.5 -89t-55.5 -296t73.5 -294t241.5 -87q57 0 107.5 8.5t80 17.5t37.5 13l29 -70q0 -4 -41 -33.5 t-108.5 -57t-153.5 -31.5v-41l37 -11q72 -16 108.5 -42.5t36.5 -88.5q0 -96 -70.5 -141t-181.5 -45q-49 0 -85 8t-72 27l34 82q59 -25 115 -25q106 0 107 59q0 27 -13.5 38.5t-46.5 17.5l-71 14l-41 41l47 109q-182 18 -282.5 145t-100.5 352z" />
<glyph unicode="&#xe8;" horiz-adv-x="970" d="M70 481q0 164 59 290t164.5 194.5t241.5 68.5q182 0 269 -111.5t87 -271.5q0 -106 -20.5 -143t-77.5 -37h-510q2 -154 73.5 -245t233.5 -91q74 0 129 11.5t85 22.5t36 15l32 -67q0 -4 -48 -40t-124.5 -66.5t-173.5 -30.5q-225 0 -340.5 132t-115.5 369zM274 1335 q12 66 45 104t66 38q23 0 43.5 -16.5t50.5 -51.5l215 -244l-63 -69zM285 578l399 16q6 37 6 78q0 119 -38 174t-142 55q-117 0 -169 -82t-56 -241z" />
<glyph unicode="&#xe9;" horiz-adv-x="970" d="M70 481q0 164 59 290t164.5 194.5t241.5 68.5q182 0 269 -111.5t87 -271.5q0 -106 -20.5 -143t-77.5 -37h-510q2 -154 73.5 -245t233.5 -91q74 0 129 11.5t85 22.5t36 15l32 -67q0 -4 -48 -40t-124.5 -66.5t-173.5 -30.5q-225 0 -340.5 132t-115.5 369zM285 578l399 16 q6 37 6 78q0 119 -38 174t-142 55q-117 0 -169 -82t-56 -241zM322 1165l215 244q33 35 52 51.5t42 16.5q33 0 65.5 -38t44.5 -104l-358 -239z" />
<glyph unicode="&#xea;" horiz-adv-x="970" d="M70 481q0 164 59 290t164.5 194.5t241.5 68.5q182 0 269 -111.5t87 -271.5q0 -106 -20.5 -143t-77.5 -37h-510q2 -154 73.5 -245t233.5 -91q74 0 129 11.5t85 22.5t36 15l32 -67q0 -4 -48 -40t-124.5 -66.5t-173.5 -30.5q-225 0 -340.5 132t-115.5 369zM184 1184l215 217 q59 59 101 59q35 0 82 -47l217 -223l-74 -80l-244 166l-237 -164zM285 578l399 16q6 37 6 78q0 119 -38 174t-142 55q-117 0 -169 -82t-56 -241z" />
<glyph unicode="&#xeb;" horiz-adv-x="970" d="M70 481q0 164 59 290t164.5 194.5t241.5 68.5q182 0 269 -111.5t87 -271.5q0 -106 -20.5 -143t-77.5 -37h-510q2 -154 73.5 -245t233.5 -91q74 0 129 11.5t85 22.5t36 15l32 -67q0 -4 -48 -40t-124.5 -66.5t-173.5 -30.5q-225 0 -340.5 132t-115.5 369zM168 1294 q0 55 37 95.5t90 40.5q51 0 84 -34t33 -89q0 -57 -35 -97.5t-92 -40.5q-52 0 -84.5 35t-32.5 90zM285 578l399 16q6 37 6 78q0 119 -38 174t-142 55q-117 0 -169 -82t-56 -241zM608 1294q0 55 37 95.5t90 40.5t85 -33t32 -90t-35 -97.5t-92 -40.5q-51 0 -84 35t-33 90z" />
<glyph unicode="&#xec;" horiz-adv-x="610" d="M37 1335q12 66 45 104t65 38q23 0 43.5 -16.5t51.5 -51.5l215 -244l-64 -69zM51 0v92l164 29v719l-164 30v95l307 55l56 -23v-876l155 -29v-92h-518z" />
<glyph unicode="&#xed;" horiz-adv-x="610" d="M51 0v92l164 29v719l-164 30v95l307 55l56 -23v-876l155 -29v-92h-518zM78 1165l215 244q33 37 51 52.5t41 15.5q33 0 66.5 -38t46.5 -104l-359 -239z" />
<glyph unicode="&#xee;" horiz-adv-x="610" d="M-27 1194l170 182q39 43 70 70t51 27q18 0 50 -28t61 -63l168 -182l-72 -76l-215 156l-227 -152zM51 0v92l164 29v719l-164 30v95l307 55l56 -23v-876l155 -29v-92h-518z" />
<glyph unicode="&#xef;" horiz-adv-x="612" d="M-51 1292q0 55 35.5 94t91.5 39q53 0 85 -32.5t32 -87.5q0 -57 -35 -98.5t-92 -41.5q-52 0 -84.5 36t-32.5 91zM53 0v92l164 29v719l-164 30v95l307 55l56 -23v-876l155 -29v-92h-518zM332 1292q0 55 35.5 94t91.5 39q53 0 84.5 -32.5t31.5 -87.5q0 -57 -34.5 -98.5 t-91.5 -41.5q-52 0 -84.5 36t-32.5 91z" />
<glyph unicode="&#xf0;" horiz-adv-x="1075" d="M78 483q0 152 60.5 263.5t169 170t251.5 58.5q113 0 207 -47q-41 190 -150 276l-217 -129l-59 99l160 98q-96 35 -262 35v96q10 2 52 7t109 5q137 0 256 -53l183 111l59 -101l-131 -80q117 -96 181.5 -260t64.5 -389q0 -342 -123 -504t-346 -162q-234 0 -349.5 132.5 t-115.5 373.5zM295 502q0 -119 17.5 -202t74.5 -137t168 -54q96 0 147.5 49t71 144t19.5 253q0 115 -11 238q-109 43 -223 43q-147 0 -205.5 -83t-58.5 -251z" />
<glyph unicode="&#xf1;" horiz-adv-x="1196" d="M51 0v92l162 29v719l-162 30v95l320 55l28 -78l7 -8q51 33 143 67.5t178 34.5q133 0 203.5 -73.5t70.5 -210.5v-631l160 -29v-92h-512v92l154 29v596q0 88 -45 126t-154 38t-192 -23v-737l155 -29v-92h-516zM225 1241l66 107q20 37 56 56t79 19q39 0 149 -30l175 -56 l143 74l53 -49l-63 -107q-20 -37 -56 -56t-77 -19q-29 0 -70 9t-80 21l-178 56l-143 -72z" />
<glyph unicode="&#xf2;" horiz-adv-x="1079" d="M76 492q0 147 56 271t166 198.5t263 74.5q221 0 334 -133t113 -364q0 -158 -53.5 -285t-163 -202t-271.5 -75q-221 0 -332.5 136.5t-111.5 378.5zM293 502q0 -201 57.5 -297t208.5 -96q133 0 182.5 97t49.5 296q0 213 -53.5 306t-192.5 93q-104 0 -158.5 -44t-74 -129 t-19.5 -226zM309 1335q13 66 45.5 104t65.5 38q23 0 43 -16.5t51 -51.5l215 -244l-63 -69z" />
<glyph unicode="&#xf3;" horiz-adv-x="1079" d="M76 492q0 147 56 271t166 198.5t263 74.5q221 0 334 -133t113 -364q0 -158 -53.5 -285t-163 -202t-271.5 -75q-221 0 -332.5 136.5t-111.5 378.5zM293 502q0 -201 57.5 -297t208.5 -96q133 0 182.5 97t49.5 296q0 213 -53.5 306t-192.5 93q-104 0 -158.5 -44t-74 -129 t-19.5 -226zM371 1165l215 244q33 37 51 52.5t41 15.5q33 0 66.5 -38t46.5 -104l-359 -239z" />
<glyph unicode="&#xf4;" horiz-adv-x="1079" d="M76 492q0 147 56 271t166 198.5t263 74.5q221 0 334 -133t113 -364q0 -158 -53.5 -285t-163 -202t-271.5 -75q-221 0 -332.5 136.5t-111.5 378.5zM244 1184l213 217q59 59 100 59q37 0 84 -47l217 -223l-74 -80l-243 166l-238 -164zM293 502q0 -201 57.5 -297t208.5 -96 q133 0 182.5 97t49.5 296q0 213 -53.5 306t-192.5 93q-104 0 -158.5 -44t-74 -129t-19.5 -226z" />
<glyph unicode="&#xf5;" horiz-adv-x="1079" d="M76 492q0 147 56 271t166 198.5t263 74.5q221 0 334 -133t113 -364q0 -158 -53.5 -285t-163 -202t-271.5 -75q-221 0 -332.5 136.5t-111.5 378.5zM182 1233l64 104q22 37 58 56.5t77 19.5t151 -31l175 -55l143 74l53 -49l-63 -107q-47 -76 -133 -76q-29 0 -70 9.5 t-80 21.5l-178 55l-143 -71zM293 502q0 -201 57.5 -297t208.5 -96q133 0 182.5 97t49.5 296q0 213 -53.5 306t-192.5 93q-104 0 -158.5 -44t-74 -129t-19.5 -226z" />
<glyph unicode="&#xf6;" horiz-adv-x="1079" d="M76 492q0 147 56 271t166 198.5t263 74.5q221 0 334 -133t113 -364q0 -158 -53.5 -285t-163 -202t-271.5 -75q-221 0 -332.5 136.5t-111.5 378.5zM205 1294q0 55 37 95.5t90 40.5t85 -33t32 -90t-35 -97.5t-92 -40.5q-52 0 -84.5 35t-32.5 90zM293 502q0 -201 57.5 -297 t208.5 -96q133 0 182.5 97t49.5 296q0 213 -53.5 306t-192.5 93q-104 0 -158.5 -44t-74 -129t-19.5 -226zM647 1294q0 55 37 95.5t90 40.5q51 0 84 -34t33 -89q0 -57 -36 -97.5t-93 -40.5q-51 0 -83 35t-32 90z" />
<glyph unicode="&#xf7;" d="M137 471v150h809v-150h-809zM408 190q0 61 40.5 105.5t100.5 44.5q59 0 95 -37t36 -98q0 -63 -39 -108.5t-102 -45.5q-58 0 -94.5 39t-36.5 100zM408 885q0 61 39.5 105t101.5 44q59 0 95 -36.5t36 -98.5q0 -63 -39 -108.5t-102 -45.5q-58 0 -94.5 40t-36.5 100z" />
<glyph unicode="&#xf8;" horiz-adv-x="1079" d="M76 492q0 147 56 271t166 198.5t263 74.5q68 0 133 -16l66 151l119 -51l-66 -149q96 -61 145.5 -172t49.5 -260q0 -158 -53.5 -285t-163 -202t-271.5 -75q-51 0 -133 17l-65 -156l-121 53l65 152q-96 61 -143 176t-47 273zM293 502q0 -94 12 -163t41 -116l289 664 q-35 14 -90 14q-104 0 -158.5 -44t-74 -129t-19.5 -226zM444 127q47 -18 115 -18q133 0 182.5 97t49.5 296q0 209 -52 299z" />
<glyph unicode="&#xf9;" horiz-adv-x="1167" d="M14 889v90l303 55l64 -28v-658q0 -125 45 -173t166 -48q41 0 93 14.5t91 34.5v682l-168 31v90l303 55l64 -28v-850l151 -33v-90l-307 -43l-39 100l-6 -2q-47 -47 -129 -77.5t-160 -30.5q-147 0 -225 72.5t-78 211.5v594zM319 1335q12 66 45 104t66 38q23 0 43.5 -16.5 t50.5 -51.5l215 -244l-61 -69z" />
<glyph unicode="&#xfa;" horiz-adv-x="1167" d="M14 889v90l303 55l64 -28v-658q0 -125 45 -173t166 -48q41 0 93 14.5t91 34.5v682l-168 31v90l303 55l64 -28v-850l151 -33v-90l-307 -43l-39 100l-6 -2q-47 -47 -129 -77.5t-160 -30.5q-147 0 -225 72.5t-78 211.5v594zM383 1165l215 244q31 35 51.5 51.5t42.5 16.5 q33 0 66 -38t45 -104l-359 -239z" />
<glyph unicode="&#xfb;" horiz-adv-x="1167" d="M14 889v90l303 55l64 -28v-658q0 -125 45 -173t166 -48q41 0 93 14.5t91 34.5v682l-168 31v90l303 55l64 -28v-850l151 -33v-90l-307 -43l-39 100l-6 -2q-47 -47 -129 -77.5t-160 -30.5q-147 0 -225 72.5t-78 211.5v594zM248 1178l215 215q61 61 100 61q35 0 82 -47 l217 -225l-74 -78l-243 164l-238 -162z" />
<glyph unicode="&#xfc;" horiz-adv-x="1167" d="M14 889v90l303 55l64 -28v-658q0 -125 45 -173t166 -48q41 0 93 14.5t91 34.5v682l-168 31v90l303 55l64 -28v-850l151 -33v-90l-307 -43l-39 100l-6 -2q-47 -47 -129 -77.5t-160 -30.5q-147 0 -225 72.5t-78 211.5v594zM217 1294q0 55 37 95.5t90 40.5q51 0 84 -34 t33 -89q0 -57 -36 -97.5t-93 -40.5q-51 0 -83 35t-32 90zM657 1294q0 55 37 95.5t90 40.5q51 0 84 -34t33 -89q0 -57 -35 -97.5t-92 -40.5q-51 0 -84 35t-33 90z" />
<glyph unicode="&#xfd;" horiz-adv-x="980" d="M-49 918v96h485v-103l-135 -18l2 -29l201 -538l10 -64l25 84l194 518l2 25l-137 20v105h412v-99l-117 -28l-422 -1106q-27 -66 -82 -95.5t-151 -29.5q-37 0 -82 6t-76 14v88l250 62l86 203l-338 858zM358 1165l215 244q33 35 52.5 51.5t42.5 16.5q33 0 65.5 -38 t44.5 -104l-358 -239z" />
<glyph unicode="&#xfe;" horiz-adv-x="1112" d="M14 1288v90l305 54l62 -29v-471q57 47 134 74.5t151 27.5q178 0 275 -120.5t97 -340.5q0 -172 -54 -303t-153.5 -202.5t-230.5 -71.5q-63 0 -123.5 20.5t-99.5 53.5l-2 -11l6 -18v-256l186 -25v-98h-526v94l141 29v1475zM381 174q37 -20 87 -32.5t95 -12.5 q137 0 197.5 90t60.5 293q0 201 -57 287t-191 86q-96 0 -192 -31v-680z" />
<glyph unicode="&#xff;" horiz-adv-x="980" d="M-49 918v96h485v-103l-135 -18l2 -29l201 -538l10 -64l25 84l194 518l2 25l-137 20v105h412v-99l-117 -28l-422 -1106q-27 -66 -82 -95.5t-151 -29.5q-37 0 -82 6t-76 14v88l250 62l86 203l-338 858zM178 1294q0 55 37 95.5t90 40.5t85 -33t32 -90t-35 -97.5t-92 -40.5 q-51 0 -84 35t-33 90zM618 1294q0 55 37 95.5t90 40.5t85 -33t32 -90t-34.5 -97.5t-92.5 -40.5q-51 0 -84 35t-33 90z" />
<glyph unicode="&#x152;" horiz-adv-x="1843" d="M86 641q0 201 81 356.5t233.5 242.5t359.5 87h969v-350h-111l-47 225h-258l-168 -14v-451h289l34 127h95v-381h-95l-34 133h-289v-473q86 -14 192 -14h250l49 227h111v-356h-1018q-643 0 -643 641zM332 666q0 -291 105.5 -418t318.5 -127q115 0 178 33v1017 q-68 29 -180 29q-125 0 -216.5 -39t-148.5 -156.5t-57 -338.5z" />
<glyph unicode="&#x153;" horiz-adv-x="1697" d="M80 492q0 147 56.5 271t166 198.5t262.5 74.5q246 0 359 -170q63 80 152 124t196 44q182 0 269 -111.5t87 -271.5q0 -106 -20.5 -143t-77.5 -37h-510q0 -154 71.5 -245t235.5 -91q74 0 129 11.5t85 22.5t36 15l33 -67q0 -4 -48.5 -40t-125 -66.5t-172.5 -30.5 q-254 0 -369 170q-129 -172 -371 -173q-221 0 -332.5 136.5t-111.5 378.5zM297 502q0 -201 57.5 -297t208.5 -96q133 0 182.5 97t49.5 296q0 213 -53.5 306t-192.5 93q-104 0 -158.5 -44t-74 -129t-19.5 -226zM1022 578l399 16q6 37 6 78q0 119 -37.5 174t-142.5 55 q-117 0 -170 -83t-55 -240z" />
<glyph unicode="&#x178;" horiz-adv-x="1214" d="M-14 1235v92h516v-92l-146 -33v-35l281 -534h27l278 538v31l-156 33v92h453v-92l-129 -35l-381 -696v-373l166 -33v-98h-545v98l166 33v354l-401 717zM287 1546q0 55 36.5 95t90.5 40q51 0 83.5 -32.5t32.5 -87.5q0 -57 -35.5 -98.5t-93.5 -41.5q-51 0 -82.5 35t-31.5 90 zM739 1546q0 55 37 95t90 40q51 0 84 -32.5t33 -87.5q0 -57 -35 -98.5t-92 -41.5q-51 0 -84 35t-33 90z" />
<glyph unicode="&#x2c6;" horiz-adv-x="626" d="M6 1184l213 217q59 59 100 59q35 0 82 -47l220 -223l-76 -80l-242 166l-237 -164z" />
<glyph unicode="&#x2dc;" horiz-adv-x="708" d="M-6 1233l63 104q23 37 59 56.5t77 19.5q39 0 149 -31l176 -55l144 74l53 -49l-64 -107q-47 -76 -133 -76q-39 0 -91 14.5t-60 16.5l-177 55l-143 -71z" />
<glyph unicode="&#x2000;" horiz-adv-x="858" />
<glyph unicode="&#x2001;" horiz-adv-x="1716" />
<glyph unicode="&#x2002;" horiz-adv-x="858" />
<glyph unicode="&#x2003;" horiz-adv-x="1716" />
<glyph unicode="&#x2004;" horiz-adv-x="572" />
<glyph unicode="&#x2005;" horiz-adv-x="429" />
<glyph unicode="&#x2006;" horiz-adv-x="286" />
<glyph unicode="&#x2007;" horiz-adv-x="286" />
<glyph unicode="&#x2008;" horiz-adv-x="214" />
<glyph unicode="&#x2009;" horiz-adv-x="343" />
<glyph unicode="&#x200a;" horiz-adv-x="95" />
<glyph unicode="&#x2010;" horiz-adv-x="641" d="M80 477v139l450 35v-174h-450z" />
<glyph unicode="&#x2011;" horiz-adv-x="641" d="M80 477v139l450 35v-174h-450z" />
<glyph unicode="&#x2012;" horiz-adv-x="641" d="M80 477v139l450 35v-174h-450z" />
<glyph unicode="&#x2013;" horiz-adv-x="1011" d="M6 469v149h1000v-149h-1000z" />
<glyph unicode="&#x2014;" horiz-adv-x="2023" d="M6 471v150h2011v-150h-2011z" />
<glyph unicode="&#x2018;" horiz-adv-x="393" d="M74 1110q0 90 74.5 200.5t134.5 166.5l69 -31q-70 -143 -69 -238q0 -41 15 -78.5t38 -66.5q-25 -41 -55.5 -64.5t-77.5 -23.5q-59 0 -94 39t-35 96z" />
<glyph unicode="&#x2019;" horiz-adv-x="387" d="M47 989q72 150 72 240q0 41 -15.5 79t-37.5 66q49 88 133 88q59 0 93 -38t34 -97q0 -90 -75 -200.5t-132 -165.5z" />
<glyph unicode="&#x201a;" horiz-adv-x="393" d="M53 -242q72 147 72 240q0 41 -15.5 79t-37.5 66q49 88 131 88q59 0 94 -37.5t35 -97.5q0 -92 -75 -201.5t-132 -164.5z" />
<glyph unicode="&#x201c;" horiz-adv-x="690" d="M53 1116q0 90 70 195.5t127 163.5l65 -29q-74 -162 -73 -244q0 -82 61 -135q-23 -39 -52.5 -61.5t-74.5 -22.5q-55 0 -89 38t-34 95zM371 1116q0 90 69.5 195.5t126.5 163.5l66 -29q-74 -162 -74 -244t62 -135q-45 -84 -127 -84q-55 0 -89 38t-34 95z" />
<glyph unicode="&#x201d;" horiz-adv-x="686" d="M51 1014q37 80 55.5 137t18.5 104q0 82 -62 136q45 84 125 84q57 0 91 -38t34 -96q0 -90 -67.5 -191t-128.5 -167zM369 1014q37 80 55 137t18 104q0 82 -61 136q45 84 127 84q55 0 89 -38t34 -96q0 -90 -67.5 -191t-129.5 -167z" />
<glyph unicode="&#x201e;" horiz-adv-x="710" d="M68 -233q39 84 57 140t18 103q0 82 -63 133q25 41 53.5 63.5t73.5 22.5q57 0 90 -37.5t33 -97.5q0 -90 -70 -195.5t-127 -162.5zM385 -233q39 84 57.5 140t18.5 103q0 82 -64 133q51 86 127 86q57 0 90 -37.5t33 -97.5q0 -90 -67.5 -192.5t-126.5 -165.5z" />
<glyph unicode="&#x2022;" horiz-adv-x="845" d="M184 625q0 96 67.5 164.5t164.5 68.5q96 0 164.5 -68.5t68.5 -164.5t-68.5 -164t-164.5 -68t-164 67.5t-68 164.5z" />
<glyph unicode="&#x2026;" horiz-adv-x="1148" d="M66 106q0 55 36.5 94.5t92.5 39.5q53 0 84.5 -33t31.5 -88q0 -57 -34.5 -98t-92.5 -41q-53 0 -85.5 34.5t-32.5 91.5zM444 106q0 55 36 94.5t91 39.5q53 0 85 -33t32 -88q0 -57 -35 -98t-92 -41q-53 0 -85 34.5t-32 91.5zM817 106q0 55 37 94.5t92 39.5q53 0 85 -33 t32 -88q0 -57 -35 -98t-92 -41q-53 0 -86 34.5t-33 91.5z" />
<glyph unicode="&#x202f;" horiz-adv-x="343" />
<glyph unicode="&#x2039;" horiz-adv-x="471" d="M63 502q0 16 24 48t65 77l206 229l70 -43l-168 -311l168 -316l-70 -45l-194 217l-27 33q-74 84 -74 111z" />
<glyph unicode="&#x203a;" horiz-adv-x="471" d="M43 186l168 316l-168 311l72 43l207 -229q41 -45 64.5 -77t23.5 -48q0 -18 -18.5 -43t-55.5 -66l-29 -35l-192 -217z" />
<glyph unicode="&#x205f;" horiz-adv-x="429" />
<glyph unicode="&#x20ac;" horiz-adv-x="1069" d="M-16 510l45 129h657l-47 -129h-279q23 -193 95.5 -299.5t195.5 -106.5q51 0 107.5 18.5t97.5 49.5l37 219h117v-328q-74 -41 -169.5 -65.5t-191.5 -24.5q-231 0 -365 146.5t-161 390.5h-139zM6 737l45 129h88q55 225 200.5 357.5t354.5 132.5q72 0 157 -15.5t150 -44.5 v-335h-116l-39 223q-80 35 -170 35q-256 0 -316 -353h404l-45 -129h-713z" />
<glyph unicode="&#x2122;" horiz-adv-x="1832" d="M25 1217v219h677v-219h-86l-30 118h-133v-512l96 -14v-72h-367v72l94 14v512h-135l-30 -118h-86zM754 737v66l96 16v527l-86 10v80h340l137 -441l16 -82l17 82l141 441h359v-80l-97 -15v-520l97 -14v-70h-361v70l88 14v482h-12l-189 -566h-145l-182 570h-12v-488l88 -16 v-66h-295z" />
<glyph unicode="&#x25fc;" horiz-adv-x="1013" d="M0 0v1014h1014v-1014h-1014z" />
</font>
</defs>
</svg>
